<?xml version="1.0" encoding="utf-8" ?>
<svg xmlns="http://www.w3.org/2000/svg" xmlns:xlink="http://www.w3.org/1999/xlink" width="1024" height="1024">
	<path fill="#FEFEFE" d="M230.107 200.698C232.56 196.611 234.163 191.734 236.138 187.378Q241.29 175.869 247.521 164.906C271.121 123.594 307.266 88.4495 347.922 63.9927C393.635 36.4945 447.893 19.3994 501.522 20.2216C524.332 20.5714 547.183 24.1686 569.286 29.7082C618.804 42.1189 669.948 72.3806 706.089 108.281C722.03 124.116 735.728 141.684 748.021 160.463C751.871 166.345 755.874 172.784 758.792 179.173C761.751 185.65 764.057 192.352 767.737 198.488C771.19 200.517 774.831 201.589 778.614 202.834C805.466 211.674 826.689 227.294 839.612 252.905C846.281 259.417 853.308 265.882 859.026 273.264C877.408 296.998 880.062 326.877 880.414 355.802C880.612 372.049 880.088 388.334 879.991 404.587C879.89 421.513 880.376 438.839 878.465 455.663C877.364 465.35 875.076 475.156 872.261 484.482C871.132 488.224 868.203 493.744 868.588 497.5Q872.433 502.036 876.001 506.792Q879.569 511.549 882.848 516.509Q886.127 521.47 889.105 526.616Q892.083 531.763 894.749 537.078L895.183 537.662C901.039 545.416 908.904 551.357 914.674 559.303C938.074 591.521 944.824 631.921 939.646 670.746C936.649 693.214 930.549 713.98 920.087 734.139C916.608 740.844 904.539 754.593 904.64 761.191C904.782 770.403 911.536 781.521 915.214 789.813C921.974 805.058 928.471 820.551 934.669 836.033C948.214 869.868 956.797 895.176 946.866 932.127C941.962 950.376 932.195 967.37 916.9 978.879C899.825 991.728 881.68 1000.19 860.304 1002.74C837.47 1005.46 813.834 1004.87 790.863 1004.67L733.5 1004.65L478.757 1004.53L282.368 1004.94L226.893 1004.61C214.311 1004.64 200.54 1005.89 188.117 1004.08C166.155 1000.87 143.721 990.893 130.332 972.537C127.321 968.409 124.565 963.906 122.426 959.26C119.634 953.196 118.852 945.942 113.992 941.139C107.528 937.096 101.358 931.883 96.2432 926.235C80.3283 908.661 73.697 886.2 75.0786 862.758C75.6161 853.639 77.3584 845.071 80.2417 836.411C82.9816 828.183 86.6425 820.181 90.0405 812.202L106.951 772.992L120.647 741.268C123.036 735.653 125.148 729.645 127.891 724.215C128.609 722.795 129.777 721.77 130.947 720.724C128.88 718.823 126.628 717.16 124.636 715.16C115.854 706.338 108.59 695.105 102.938 684.049C83.8212 646.65 81.0188 596.638 94.1778 556.897Q94.7282 555.186 95.3166 553.487Q95.905 551.789 96.5311 550.104Q97.1572 548.419 97.8207 546.749Q98.4842 545.079 99.1847 543.423Q99.8853 541.768 100.623 540.129Q101.36 538.49 102.133 536.867Q102.907 535.245 103.717 533.64Q104.526 532.035 105.372 530.449Q106.217 528.863 107.097 527.296Q107.977 525.728 108.892 524.181Q109.807 522.634 110.757 521.108Q111.706 519.582 112.689 518.077Q113.672 516.572 114.688 515.09Q115.705 513.607 116.754 512.148Q117.803 510.688 118.885 509.253Q119.966 507.817 121.079 506.406Q122.192 504.994 123.337 503.608Q124.481 502.222 125.656 500.862Q126.831 499.502 128.036 498.168Q129.241 496.834 130.475 495.528Q131.71 494.221 132.973 492.943Q134.236 491.664 135.527 490.414Q136.819 489.164 138.138 487.943Q139.457 486.721 140.802 485.53Q142.148 484.339 143.52 483.178Q144.892 482.016 146.29 480.886Q147.688 479.756 149.11 478.657Q150.532 477.558 151.979 476.491Q153.426 475.425 154.896 474.39Q156.366 473.356 157.858 472.355Q159.351 471.353 160.866 470.386Q162.38 469.418 163.916 468.484C170.692 464.398 177.949 461.54 184.995 457.992C180.891 454.009 176.099 450.772 171.937 446.836C161.023 436.516 154.342 421.232 151.183 406.764C147.089 388.015 148.906 358.863 148.894 338.744C148.882 318.583 147.194 296.47 150.429 276.641C152.385 264.652 156.201 253.478 162.81 243.226C179.74 216.963 200.463 207.175 230.107 200.698Z"/>
	<path fill="#212832" d="M894.749 537.078L895.183 537.662C901.039 545.416 908.904 551.357 914.674 559.303C938.074 591.521 944.824 631.921 939.646 670.746C936.649 693.214 930.549 713.98 920.087 734.139C916.608 740.844 904.539 754.593 904.64 761.191C904.782 770.403 911.536 781.521 915.214 789.813C921.974 805.058 928.471 820.551 934.669 836.033C948.214 869.868 956.797 895.176 946.866 932.127C941.962 950.376 932.195 967.37 916.9 978.879C899.825 991.728 881.68 1000.19 860.304 1002.74C837.47 1005.46 813.834 1004.87 790.863 1004.67L733.5 1004.65L478.757 1004.53L282.368 1004.94L226.893 1004.61C214.311 1004.64 200.54 1005.89 188.117 1004.08C166.155 1000.87 143.721 990.893 130.332 972.537C127.321 968.409 124.565 963.906 122.426 959.26C119.634 953.196 118.852 945.942 113.992 941.139C122.608 943.795 129.007 948.36 138.634 950.231C149.866 952.415 161.895 951.562 173.308 951.533L218.41 951.506L396.229 951.524L701.691 951.52L799.165 951.536C816.104 951.542 833.52 952.438 850.391 951.271C863.798 950.343 876.303 945.632 887.375 938.052C905.392 925.719 917.034 906.635 920.941 885.268C923.138 873.259 922.91 859.355 920.134 847.454C916.54 832.042 909.174 816.851 902.933 802.331Q892.739 778.08 882.097 754.023C877.961 744.721 871.387 727.809 865.913 719.929C875.148 710.787 883.34 701.823 889.872 690.459C909.416 656.46 915.052 609.43 906.266 571.415C904.679 564.549 902.442 557.734 899.927 551.155C898.213 546.673 896.053 542.111 894.848 537.481C894.814 537.347 894.782 537.212 894.749 537.078Z"/>
	<path fill="#212832" d="M839.612 252.905C846.281 259.417 853.308 265.882 859.026 273.264C877.408 296.998 880.062 326.877 880.414 355.802C880.612 372.049 880.088 388.334 879.991 404.587C879.89 421.513 880.376 438.839 878.465 455.663C877.364 465.35 875.076 475.156 872.261 484.482C871.132 488.224 868.203 493.744 868.588 497.5C863.812 494.375 859.915 488.785 855.651 484.905C842.583 473.012 827.427 464.241 811.017 457.873C822.908 451.084 833.123 439.96 839.194 427.724C843.322 419.403 846.082 409.776 847.196 400.561C849.287 383.249 847.945 361.317 847.941 343.497C847.937 323.402 849.395 299.964 846.926 280.338C845.732 270.85 842.601 261.938 839.612 252.905Z"/>
	<path fill="#000103" d="M493.553 61.7174Q497.026 61.6447 500.5 61.6713Q503.974 61.6979 507.446 61.8239Q510.918 61.9498 514.384 62.1748Q517.851 62.3999 521.31 62.724Q524.769 63.0481 528.217 63.471Q531.665 63.8938 535.1 64.415Q538.535 64.9362 541.953 65.5554Q545.372 66.1746 548.771 66.8913Q552.17 67.6079 555.548 68.4214Q558.925 69.235 562.278 70.1447Q565.631 71.0544 568.956 72.0596Q572.282 73.0648 575.577 74.1646Q578.872 75.2645 582.135 76.4581Q585.398 77.6517 588.625 78.938Q591.852 80.2244 595.041 81.6025Q598.23 82.9805 601.378 84.4492C665.264 114.448 714.551 166.332 738.65 232.889C749.003 234.233 756.185 237.811 763.662 245.072C774.937 245.075 784.681 247.466 793.279 255.088C802.596 263.349 808.166 276.563 808.793 288.897C809.067 294.293 808.754 299.781 808.712 305.186Q808.599 320.364 808.664 335.543L808.857 370.481C808.909 378.998 809.645 388.06 807.949 396.445C806.199 405.1 802.157 413.605 796.153 420.121C787.886 429.092 778.099 432.091 766.231 432.551C764.032 441.5 760.898 446.557 754.461 453.004C753.773 463.058 754.233 473.345 754.417 483.418C778.409 484.015 802.291 494.631 821.197 509.125C848.129 529.772 865.776 559.42 870.113 593.244C873.602 620.456 867.034 653.358 849.954 675.195C838.367 690.009 825.008 696.324 806.652 698.516C802.323 710.039 797.131 719.024 789.461 728.637Q790.189 728.609 790.917 728.595C801.88 728.357 818.181 726.231 826.684 734.684C830.076 738.056 832.627 742.15 834.814 746.376C838.24 752.996 841.054 760.047 844.023 766.886L859.207 802.062L872.529 833.086C875.207 839.339 878.148 845.528 880.327 851.977C881.925 856.708 883.009 861.28 883.058 866.292C883.173 878.087 878.34 890.627 869.968 898.986C865.143 903.804 858.317 907.735 851.506 908.698C840.77 910.215 828.772 909.184 817.878 909.199L746.965 909.143L505.625 909.122L257.476 909.142L183.842 909.102C172.325 909.112 158.055 910.175 146.822 908.782C139.769 907.907 134.142 905.046 128.838 900.335Q128.033 899.623 127.264 898.871Q126.496 898.119 125.766 897.329Q125.037 896.54 124.348 895.715Q123.659 894.889 123.012 894.03Q122.366 893.172 121.763 892.281Q121.16 891.391 120.603 890.471Q120.046 889.552 119.536 888.605Q119.026 887.659 118.565 886.688Q118.103 885.717 117.69 884.724Q117.278 883.732 116.916 882.719Q116.554 881.707 116.244 880.678Q115.933 879.648 115.675 878.605Q115.416 877.561 115.211 876.506Q115.005 875.451 114.853 874.387Q114.701 873.322 114.602 872.252Q114.504 871.181 114.459 870.107Q114.369 868.227 114.446 866.347Q114.523 864.467 114.765 862.601Q115.008 860.734 115.416 858.897Q115.823 857.06 116.391 855.266C121.605 838.584 131.625 818.484 138.647 802.131L154.049 766.308C157.072 759.304 159.883 752.024 163.412 745.262C165.28 741.684 167.62 738.115 170.404 735.179C178.708 726.42 197.044 728.541 208.103 728.49C199.445 720.074 194.32 709.699 190.135 698.572C176.947 697.772 165.541 693.798 155.426 685.103C136.687 668.996 128.003 642.14 126.16 618.208Q126.038 616.694 125.954 615.177Q125.869 613.66 125.822 612.142Q125.774 610.623 125.764 609.104Q125.754 607.585 125.782 606.066Q125.809 604.547 125.873 603.03Q125.938 601.512 126.04 599.996Q126.142 598.481 126.281 596.968Q126.42 595.455 126.596 593.946Q126.772 592.437 126.985 590.933Q127.198 589.429 127.448 587.931Q127.698 586.432 127.984 584.94Q128.271 583.448 128.594 581.964Q128.917 580.48 129.277 579.004Q129.636 577.528 130.032 576.061Q130.427 574.594 130.859 573.138Q131.29 571.681 131.757 570.236Q132.225 568.79 132.727 567.357Q133.23 565.923 133.767 564.502Q134.305 563.081 134.877 561.674Q135.449 560.267 136.056 558.874Q136.662 557.481 137.303 556.104Q137.943 554.726 138.618 553.365Q139.292 552.004 139.999 550.659Q140.707 549.315 141.447 547.989Q142.187 546.662 142.96 545.354Q143.733 544.046 144.537 542.757Q145.341 541.469 146.177 540.2Q147.013 538.932 147.88 537.684Q148.747 536.437 149.644 535.211Q150.541 533.985 151.468 532.781Q152.395 531.577 153.351 530.397Q154.307 529.217 155.292 528.06C172.368 508.326 197.724 491.786 223.354 485.861C229.661 484.403 236.002 483.859 242.439 483.418C242.78 473.464 242.686 463.475 242.83 453.513C236.079 447.261 232.217 441.394 229.864 432.471Q228.158 432.46 226.454 432.395C216.284 432.012 207.048 427.525 200.203 420.01C194.688 413.955 191.022 406.007 189.449 398.001C187.932 390.282 188.473 382.074 188.495 374.239L188.588 344C188.631 325.407 187.615 306.415 188.525 287.867C189.132 275.508 194.796 262.765 204.11 254.518C212.433 247.149 222.58 244.623 233.496 245.302C233.755 245.018 234.013 244.732 234.282 244.456C240.702 237.882 248.56 233.545 257.922 233.434C272.634 197.652 286.116 173.424 312.325 144.558C358.831 93.3365 425.021 65.0669 493.553 61.7174Z"/>
	<path fill="#CAD2DC" d="M282.366 246.567Q283.075 244.491 283.824 242.428Q284.572 240.365 285.359 238.317Q286.147 236.269 286.973 234.236Q287.799 232.204 288.663 230.187Q289.528 228.17 290.431 226.17Q291.333 224.17 292.273 222.188Q293.214 220.205 294.191 218.241Q295.169 216.276 296.184 214.331Q297.199 212.385 298.25 210.46Q299.302 208.534 300.39 206.628Q301.477 204.723 302.601 202.838Q303.725 200.953 304.884 199.09Q306.044 197.227 307.238 195.387Q308.432 193.546 309.662 191.729Q310.891 189.911 312.154 188.117Q313.417 186.323 314.714 184.553Q316.012 182.783 317.342 181.038Q318.672 179.294 320.036 177.574Q321.399 175.855 322.795 174.162Q324.19 172.469 325.618 170.802Q327.045 169.136 328.504 167.497Q329.963 165.858 331.453 164.247Q332.942 162.636 334.462 161.053Q335.982 159.471 337.532 157.917Q339.081 156.364 340.66 154.84Q342.239 153.316 343.847 151.823Q345.454 150.329 347.089 148.866Q348.725 147.403 350.388 145.972Q352.051 144.54 353.74 143.141Q355.43 141.741 357.146 140.373Q358.862 139.006 360.604 137.671Q362.345 136.336 364.112 135.035C412.172 100.221 472.64 83.7896 531.655 93.1529C540.099 93.3189 549.229 96.0648 557.344 98.3144Q561.088 99.3596 564.794 100.531Q568.5 101.702 572.164 102.997Q575.829 104.293 579.447 105.712Q583.066 107.131 586.634 108.671Q590.203 110.211 593.717 111.871Q597.232 113.531 600.688 115.309Q604.145 117.086 607.539 118.98Q610.933 120.873 614.262 122.88Q617.59 124.888 620.849 127.006Q624.108 129.125 627.293 131.352Q630.478 133.579 633.586 135.913Q636.694 138.247 639.722 140.684Q642.749 143.122 645.693 145.66Q648.636 148.198 651.492 150.835Q654.348 153.471 657.113 156.202Q659.879 158.934 662.55 161.757C685.842 185.946 703.982 214.419 714.173 246.52C711.62 250.431 710.068 254.167 709.663 258.876C708.562 271.66 709.393 285.089 709.426 297.953L709.539 370.862L709.427 415.793C709.387 423.213 708.404 431.576 709.773 438.868C710.489 442.684 713.128 446.554 715.516 449.554C712.242 459.015 706.812 467.519 700.845 475.498C681.283 501.651 654.621 521.422 625.388 535.62C557.058 568.807 472.388 571.689 400.931 546.847C360.12 532.66 321.797 509.738 295.964 474.368C291.466 468.209 286.959 461.8 283.619 454.933Q282.252 452.111 281.011 449.232C282.571 447.058 284.283 444.845 285.274 442.344C288.997 432.938 286.867 418.872 287.095 408.682C285.632 394.601 286.555 379.557 286.631 365.373L286.935 291.897C286.988 281.041 288.374 267.31 286.749 256.819C286.139 252.883 284.592 249.795 282.366 246.567Z"/>
	<path fill="#FEFEFE" d="M282.366 246.567Q283.075 244.491 283.824 242.428Q284.572 240.365 285.359 238.317Q286.147 236.269 286.973 234.236Q287.799 232.204 288.663 230.187Q289.528 228.17 290.431 226.17Q291.333 224.17 292.273 222.188Q293.214 220.205 294.191 218.241Q295.169 216.276 296.184 214.331Q297.199 212.385 298.25 210.46Q299.302 208.534 300.39 206.628Q301.477 204.723 302.601 202.838Q303.725 200.953 304.884 199.09Q306.044 197.227 307.238 195.387Q308.432 193.546 309.662 191.729Q310.891 189.911 312.154 188.117Q313.417 186.323 314.714 184.553Q316.012 182.783 317.342 181.038Q318.672 179.294 320.036 177.574Q321.399 175.855 322.795 174.162Q324.19 172.469 325.618 170.802Q327.045 169.136 328.504 167.497Q329.963 165.858 331.453 164.247Q332.942 162.636 334.462 161.053Q335.982 159.471 337.532 157.917Q339.081 156.364 340.66 154.84Q342.239 153.316 343.847 151.823Q345.454 150.329 347.089 148.866Q348.725 147.403 350.388 145.972Q352.051 144.54 353.74 143.141Q355.43 141.741 357.146 140.373Q358.862 139.006 360.604 137.671Q362.345 136.336 364.112 135.035C412.172 100.221 472.64 83.7896 531.655 93.1529C531.323 93.2184 530.992 93.291 530.658 93.3495C526.02 94.1627 505.636 90.0012 503.514 92.4715C506.605 96.3518 514.222 94.2352 517.348 97.2125L517.987 97.0203C518.953 97.3138 519.32 97.2627 519.996 98.0486C519.711 96.8444 519.386 96.3825 519.871 95.1894L520.518 95.5572C520.543 95.724 520.566 95.8911 520.592 96.0576C520.776 97.2246 520.85 98.4192 521.885 99.1681C525.423 101.727 531.223 100.348 535.273 102.119C541.395 104.795 547.628 107.237 553.619 110.197C559.682 113.192 566.341 117.426 572.694 119.561C572.93 120.12 573.045 120.746 573.401 121.237C574.264 122.424 578.576 124.239 580.111 125.22Q584.901 128.298 589.414 131.769C609.514 147.35 637.487 176.855 638.561 203.558C638.368 203.486 638.175 203.417 637.983 203.343C632.794 201.348 627.999 198.366 622.963 196.011C611.175 190.5 598.936 185.209 586.575 181.117C527.186 161.455 453.328 163.056 395.71 188.15C379.3 195.297 362.699 203.847 348.897 215.379C347.671 216.404 344.846 218.313 344.259 219.792C343.977 220.504 344.087 221.72 344.104 222.461L343.352 222.634C343.306 222.478 343.264 222.321 343.214 222.166C342.989 221.466 343.097 221.728 342.65 221.077L342.109 221.583C340.002 223.537 337.415 224.518 335.38 226.293C333.029 228.343 332.342 232.081 329.682 233.974C327.859 235.271 324.785 234.989 323.291 236.268C321.426 237.865 319.052 243.933 317.369 246.403C314.741 250.261 311.484 253.658 308.768 257.449C306.171 261.074 304.213 265.112 301.65 268.738C297.769 274.227 293.614 278.503 291.594 285.127C290.822 287.658 287.953 289.571 287.705 292.29C287.128 298.607 287.573 305.456 287.554 311.819L287.573 352.472L287.644 387.516C287.649 393.968 287.37 400.537 287.864 406.969C288.093 409.94 288.653 412.347 289.862 415.073C291.087 417.834 292.459 420.552 293.572 423.36L293.298 423.842C291.009 418.93 288.72 413.86 287.095 408.682C285.632 394.601 286.555 379.557 286.631 365.373L286.935 291.897C286.988 281.041 288.374 267.31 286.749 256.819C286.139 252.883 284.592 249.795 282.366 246.567Z"/>
	<path fill="#000103" d="M319.039 429.419C314.007 418.123 309.619 406.819 306.69 394.774C299.397 364.789 300.213 330.112 311.231 301.166C326.94 259.9 359.425 228.268 399.521 210.46C457.134 184.87 527.408 182.638 586.23 205.429C628.08 221.644 664.128 250.526 682.442 292.31C700.057 332.496 699.128 378.749 683.028 419.24C675.887 437.199 665.726 449.882 654.105 464.85L654.571 465.329C653.242 469.622 645.157 472.131 643.837 477.612C643.417 479.358 643.968 481.004 644.893 482.477C646.265 484.659 647.349 487.027 648.884 489.097C650.176 487.586 651.783 487.892 653.336 486.765C656.277 484.632 663.745 476.6 666.364 475.184C664.919 479.408 648.467 491.111 644.314 494.226C594.36 531.693 514.644 540.948 454.218 532.264C412.255 526.233 370.432 512.273 338.034 484.063C332.986 479.668 327.137 474.721 323.126 469.357C325.853 470.687 328.986 474.801 331.241 477.015C334.264 479.983 344.724 489.704 348.047 491.382C348.954 491.84 348.499 491.751 349.62 491.36C351.388 486.728 347.823 485.533 347.747 481.51C347.7 478.977 350.487 475.585 349.821 473.47C344.051 469.308 332.427 454.283 328.59 448.354C327.179 446.173 326.477 443.763 324.941 441.626C322.408 438.1 319.991 433.707 318.431 429.648L319.039 429.419Z"/>
	<path fill="#FEFEFE" d="M654.105 464.85L654.571 465.329C653.242 469.622 645.157 472.131 643.837 477.612C643.417 479.358 643.968 481.004 644.893 482.477C646.265 484.659 647.349 487.027 648.884 489.097C650.176 487.586 651.783 487.892 653.336 486.765C656.277 484.632 663.745 476.6 666.364 475.184C664.919 479.408 648.467 491.111 644.314 494.226C594.36 531.693 514.644 540.948 454.218 532.264C412.255 526.233 370.432 512.273 338.034 484.063C332.986 479.668 327.137 474.721 323.126 469.357C325.853 470.687 328.986 474.801 331.241 477.015C334.264 479.983 344.724 489.704 348.047 491.382C348.954 491.84 348.499 491.751 349.62 491.36C351.388 486.728 347.823 485.533 347.747 481.51C347.7 478.977 350.487 475.585 349.821 473.47C344.051 469.308 332.427 454.283 328.59 448.354C327.179 446.173 326.477 443.763 324.941 441.626C322.408 438.1 319.991 433.707 318.431 429.648L319.039 429.419C343.205 474.135 369.893 495.127 418.329 509.592C469.964 525.012 527.487 524.353 579.121 509.321C592.008 505.569 604.872 501.079 616.706 494.663C626.727 489.231 636.561 482.06 644.901 474.296C647.947 471.461 650.811 467.205 654.105 464.85Z"/>
	<path fill="#FEFEFE" d="M416.254 238.1C422.625 237.495 429.056 237.989 434.5 241.738C438.695 244.627 441.329 248.967 442.202 253.964C443.468 261.204 440.849 268.343 436.617 274.142C429.683 283.644 419.491 288.52 408.121 290.337C402.177 290.984 395.224 289.994 390.071 286.859C385.851 284.291 383.031 280.248 382.003 275.422C380.563 268.665 382.893 261.749 386.66 256.153C393.516 245.969 404.499 240.439 416.254 238.1Z"/>
	<path fill="#FEFEFE" d="M358.458 292.631C362.539 292.352 367.32 293.904 370.666 296.173C375.49 299.444 378.65 304.843 379.639 310.541C380.726 316.808 379.013 323.134 375.271 328.234C371.29 333.66 366.041 336.329 359.524 337.314C355.04 337.559 350.296 336.576 346.549 334.031C341.808 330.811 338.961 325.573 338.096 319.977C337.112 313.604 338.905 307.132 342.718 301.972C346.69 296.598 351.975 293.728 358.458 292.631Z"/>
	<path fill="#FEFEFE" d="M574.412 361.571C578.527 361.27 582.281 361.504 586.056 363.334Q586.496 363.552 586.923 363.792Q587.351 364.032 587.766 364.294Q588.181 364.556 588.582 364.838Q588.983 365.121 589.37 365.424Q589.756 365.726 590.126 366.048Q590.496 366.371 590.849 366.711Q591.202 367.052 591.538 367.41Q591.873 367.768 592.189 368.143Q592.506 368.518 592.803 368.908Q593.1 369.299 593.376 369.704Q593.653 370.109 593.909 370.528Q594.164 370.947 594.398 371.378Q594.632 371.81 594.843 372.252Q595.055 372.695 595.243 373.148Q595.432 373.601 595.597 374.063Q595.762 374.525 595.903 374.995Q596.053 375.463 596.18 375.938Q596.306 376.413 596.408 376.894Q596.51 377.375 596.588 377.86Q596.666 378.346 596.719 378.834Q596.771 379.323 596.799 379.814Q596.828 380.304 596.831 380.796Q596.834 381.288 596.812 381.779Q596.79 382.27 596.743 382.759Q596.697 383.248 596.625 383.735Q596.554 384.221 596.458 384.703Q596.362 385.185 596.241 385.662Q596.121 386.138 595.976 386.608Q595.832 387.078 595.664 387.54Q595.496 388.002 595.305 388.455Q595.113 388.908 594.899 389.35Q594.685 389.793 594.449 390.224C591.614 395.379 587.364 397.914 581.921 399.556C577.333 400.182 572.89 400.065 568.669 397.937C564.229 395.698 560.88 391.544 559.343 386.844C557.71 381.85 558.146 376.09 560.621 371.441C563.641 365.769 568.526 363.325 574.412 361.571Z"/>
	<path fill="#FEFEFE" d="M416.483 361.618C420.317 361.413 423.993 361.776 427.523 363.386Q427.964 363.589 428.395 363.814Q428.825 364.039 429.243 364.287Q429.661 364.534 430.066 364.802Q430.47 365.071 430.86 365.36Q431.251 365.649 431.625 365.958Q432 366.268 432.358 366.596Q432.716 366.924 433.057 367.27Q433.398 367.616 433.72 367.979Q434.043 368.342 434.346 368.722Q434.649 369.101 434.932 369.496Q435.215 369.891 435.477 370.3Q435.739 370.708 435.98 371.13Q436.221 371.552 436.439 371.986Q436.658 372.42 436.854 372.864Q437.049 373.309 437.222 373.763Q437.394 374.217 437.543 374.679Q437.697 375.151 437.826 375.629Q437.955 376.108 438.06 376.593Q438.164 377.078 438.244 377.567Q438.323 378.057 438.377 378.55Q438.432 379.043 438.46 379.538Q438.489 380.033 438.493 380.529Q438.496 381.025 438.474 381.52Q438.451 382.016 438.404 382.51Q438.356 383.003 438.283 383.494Q438.21 383.984 438.112 384.47Q438.014 384.957 437.891 385.437Q437.768 385.918 437.621 386.391Q437.474 386.865 437.302 387.33Q437.13 387.795 436.935 388.251Q436.74 388.707 436.522 389.152Q436.303 389.598 436.062 390.031C432.896 395.773 428.271 398.143 422.23 399.831C417.751 400.309 413.101 399.603 409.225 397.225C404.754 394.481 401.695 389.832 400.551 384.748Q400.439 384.271 400.352 383.788Q400.265 383.306 400.203 382.819Q400.14 382.333 400.103 381.844Q400.065 381.356 400.052 380.866Q400.039 380.375 400.051 379.885Q400.063 379.395 400.1 378.906Q400.137 378.418 400.199 377.931Q400.261 377.445 400.347 376.962Q400.434 376.48 400.544 376.002Q400.655 375.525 400.79 375.053Q400.925 374.582 401.084 374.118Q401.242 373.654 401.424 373.199Q401.606 372.744 401.811 372.299Q402.016 371.853 402.243 371.419Q402.471 370.985 402.72 370.562Q402.969 370.14 403.239 369.731C406.468 364.947 411.02 362.792 416.483 361.618Z"/>
	<path fill="#CAD2DC" d="M180.913 769.839C183.349 764.308 185.697 757.092 191.824 754.762C198.562 752.2 225.58 752.237 233.161 753.548C234.804 753.833 236.363 754.478 237.857 755.201C241.836 757.127 245.519 759.758 249.424 761.847C253.904 764.244 258.76 765.868 263.54 767.546C259.626 766.77 247.578 765.637 244.511 768.221C240.818 771.334 236.59 791.68 235.829 797.157C236.782 798.843 237.269 799.542 239.172 800.068C243.25 801.194 253.8 801.773 257.396 799.359C257.966 798.976 258.508 798.316 258.961 797.822C262.482 788.665 264.643 778.646 267.391 769.211C271.297 770.563 275.213 772.09 279.176 773.251C277.456 780.531 272.803 791.624 276.96 798.636C278.662 801.507 282.489 804.201 285.746 804.935Q299.481 804.947 313.203 805.534C312.614 812.792 310.535 819.681 309.42 826.842C308.819 830.703 308.544 835.276 311.103 838.539C313.015 840.978 317.1 841.243 320.032 841.511C328.977 842.329 338.522 841.714 347.538 841.705L401.328 841.678L462.039 841.67C471.833 841.646 482.286 842.39 491.97 841.36C493.941 841.15 495.948 840.213 497.413 838.872C502.449 834.265 500.058 813.587 500.109 806.313C503.888 806.145 507.703 806.356 511.484 806.462C511.899 814.696 510.5 834.011 516.509 839.593C518.323 841.278 523.407 841.571 525.926 841.715C534.291 842.193 542.909 841.679 551.297 841.648L595.084 841.701C627.593 841.675 660.273 842.531 692.757 841.381C694.347 840.373 695.982 839.215 697.041 837.622C701.21 831.351 695.436 813.281 693.783 805.952Q700.296 805.711 706.813 805.826C707.679 812.819 712.136 834.821 716.36 839.563C718.827 840.746 721.499 841.272 724.213 841.501C735.999 842.498 748.497 841.7 760.349 841.696C778.219 841.689 796.355 842.235 814.195 841.348C815.713 840.165 817.5 838.645 818.394 836.927C819.349 835.091 819.214 833.223 818.927 831.231C818.029 825.022 815.508 818.734 813.52 812.792Q808.982 799.535 804.747 786.179C810.623 786.321 816.619 785.844 822.518 785.821C832.339 807.607 841.148 829.944 850.405 851.983C853.087 856.844 855.139 865.708 853.74 871.125C853.145 873.43 851.734 875.285 849.607 876.38C847.558 877.435 845.108 877.828 842.828 877.943C835.648 878.304 828.33 878.028 821.134 878.024L780.76 878.002L658.914 878.035L270.082 877.988L184.766 878.01C178.095 878.008 154.844 879.057 149.783 877.438C147.519 876.715 145.736 875.283 144.667 873.145C142.184 868.18 143.785 859.824 145.585 854.74C145.87 853.936 146.201 853.215 146.577 852.45C153.943 833.137 162.425 814.008 170.506 794.972C174.048 786.628 177.854 778.378 180.913 769.839Z"/>
	<path fill="#5F6B7E" d="M850.405 851.983C853.087 856.844 855.139 865.708 853.74 871.125C853.145 873.43 851.734 875.285 849.607 876.38C847.558 877.435 845.108 877.828 842.828 877.943C835.648 878.304 828.33 878.028 821.134 878.024L780.76 878.002L658.914 878.035L270.082 877.988L184.766 878.01C178.095 878.008 154.844 879.057 149.783 877.438C147.519 876.715 145.736 875.283 144.667 873.145C142.184 868.18 143.785 859.824 145.585 854.74C145.87 853.936 146.201 853.215 146.577 852.45C151.324 853.087 156.797 852.567 161.632 852.548L192.704 852.464L305.643 852.496L685.745 852.425L777.901 852.313C786.616 852.322 846.605 853.495 850.405 851.983Z"/>
	<path fill="#99A1B1" d="M180.913 769.839C183.349 764.308 185.697 757.092 191.824 754.762C198.562 752.2 225.58 752.237 233.161 753.548C234.804 753.833 236.363 754.478 237.857 755.201C241.836 757.127 245.519 759.758 249.424 761.847C253.904 764.244 258.76 765.868 263.54 767.546C259.626 766.77 247.578 765.637 244.511 768.221C240.818 771.334 236.59 791.68 235.829 797.157C235.72 796.9 235.625 796.637 235.503 796.386C233.468 792.213 226.442 781.577 221.786 780.206C221.793 778.919 221.854 777.642 221.908 776.356C221.966 774.955 222.19 772.934 221.024 771.896C218.654 769.786 213.496 769.826 210.419 769.752C206.755 769.665 203.211 769.429 200.399 772.103C193.897 771.64 187.289 771.232 180.913 769.839Z"/>
	<path fill="#F5532E" d="M200.399 772.103C203.211 769.429 206.755 769.665 210.419 769.752C213.496 769.826 218.654 769.786 221.024 771.896C222.19 772.934 221.966 774.955 221.908 776.356C221.854 777.642 221.793 778.919 221.786 780.206C221.008 783.603 220.048 787.663 217.672 790.287C213.256 792.368 205.425 791.976 200.704 790.813C199.609 790.543 197.775 789.977 197.244 788.892C195.304 784.932 198.832 776.025 200.399 772.103Z"/>
	<path fill="#99A1B1" d="M267.391 769.211C271.297 770.563 275.213 772.09 279.176 773.251C277.456 780.531 272.803 791.624 276.96 798.636C278.662 801.507 282.489 804.201 285.746 804.935C276.762 806.153 267.125 801.115 258.961 797.822C262.482 788.665 264.643 778.646 267.391 769.211Z"/>
	<path fill="#000103" d="M259.885 808.209C262.763 808.038 265.814 807.901 268.672 808.382C270.767 808.734 272.556 809.324 273.799 811.128C274.209 816.044 269.893 836.292 266.478 839.783C265.001 841.292 261.469 841.064 259.492 841.121C255.847 841.139 250.678 841.655 247.421 839.719C246.466 839.151 245.51 838.471 245.32 837.314C244.572 832.773 250.743 813.47 253.41 809.319C255.2 808.278 257.841 808.38 259.885 808.209Z"/>
	<path fill="#F5532E" d="M192.792 808.681C196.424 808.317 202.138 808.201 205.498 809.715C206.633 810.226 207.263 810.742 207.553 811.989C208.655 816.743 202.142 834.44 198.968 838.54C197.615 840.287 196.423 840.356 194.383 840.67C191.272 840.638 188.102 840.62 185.005 840.313C182.583 840.074 179.9 839.522 178.304 837.545C177.579 831.954 183.236 814.781 186.648 810.024C188.521 808.919 190.67 808.906 192.792 808.681Z"/>
	<path fill="#F5532E" d="M223.909 819.705C226.562 819.519 229.856 819.163 232.14 820.838C233.731 822.004 234.568 823.649 234.785 825.587C235.128 828.652 233.936 831.825 232.014 834.183C229.682 837.046 227.307 837.894 223.739 838.348C221.067 838.311 217.523 838.391 215.361 836.616C213.76 835.302 212.913 833.549 212.765 831.491C212.525 828.13 214.085 824.8 216.308 822.357C218.593 819.847 220.771 819.912 223.909 819.705Z"/>
	<path fill="#CAD2DC" d="M306.733 540.747C310.441 538.537 314.085 536.506 318.02 534.732C329.577 542.927 341.384 550.664 353.954 557.244C401.164 581.959 455.775 591.748 508.734 590.228C524.786 589.767 541.023 588.785 556.875 586.098Q563.283 585.045 569.639 583.712Q575.995 582.38 582.287 580.771Q588.578 579.161 594.794 577.279Q601.009 575.396 607.136 573.243Q613.263 571.09 619.29 568.671Q625.317 566.252 631.232 563.572Q637.147 560.892 642.94 557.956Q648.732 555.02 654.391 551.833C663.474 546.598 671.925 540.598 680.68 534.871C720.709 556.465 765.39 589.454 778.928 635.118C785.585 657.572 785.739 681.87 774.211 702.73C763.027 722.966 742.773 737.27 721.118 744.482C713.145 747.137 704.524 748.66 696.876 752.142C707.781 738.537 716.64 721.453 716.539 703.55C716.261 699.868 717.157 690.551 714.868 688.048C713.644 687.816 713.546 687.581 712.384 688.168L713.132 688.592C711.978 689.964 711.142 690.964 709.245 691.223C709.086 691.245 708.926 691.246 708.767 691.258C709.445 690.148 709.805 689.361 710.043 688.08L709.409 687.368C707.745 687.355 706.238 687.168 704.602 686.874C704.44 686.643 704.24 686.433 704.115 686.179C703.593 685.114 703.456 684.392 702.674 683.342C701.202 683.389 700.905 683.871 699.768 684.76L698.737 684.504C698.13 683.454 697.794 682.786 696.749 682.112C695.608 682.295 694.929 682.442 693.783 682.14C693.542 682.077 693.31 681.984 693.074 681.906C692.988 681.686 692.876 681.474 692.814 681.245C692.514 680.123 692.485 679.289 691.923 678.227C690.345 677.931 688.552 679.425 687.179 680.242C686.294 676.015 684.872 671.923 683.24 667.934L679.844 661.499C677.633 658.14 675.264 654.902 672.54 651.938C663.611 642.222 654.596 637.939 641.499 637.336C642.494 636.217 642.517 634.621 643.444 633.402C647.092 628.603 664.582 624.68 670.389 624.165C677.936 622.912 686.157 621.572 693.796 622.303C700.08 622.904 708.251 626.656 714.343 625.663C716.606 625.294 718.468 623.947 719.727 622.057C721.098 620 721.703 617.214 721.057 614.801C720.218 611.667 717.649 609.585 714.935 608.06C692.949 595.704 659.912 603.156 636.911 609.321C619.801 614.017 602.788 619.312 587.162 627.871Q578.459 632.816 570.017 638.193C561.872 643.421 553.866 649.309 547.38 656.558C545.332 659.108 543.188 661.606 541.528 664.433C538.589 668.98 535.852 673.459 533.834 678.497Q532.017 682.716 530.74 687.128Q529.464 691.541 528.747 696.078C528.386 698.808 527.957 701.512 527.986 704.272C527.796 712.299 528.371 719.651 530.28 727.48C509.24 728.555 487.447 728.561 466.372 727.853C467.992 719.901 469.232 712.356 469.071 704.2C468.849 701.429 468.535 698.658 468.259 695.891C466.996 690.099 465.411 684.484 463.283 678.948Q461.143 674.572 458.952 670.221C464.927 670.553 472.667 671.4 478.01 668.333C480.502 666.902 481.859 663.982 482.532 661.297C483.696 656.66 483.491 635.811 482.719 631.013C482.337 628.642 481.599 626.136 480.23 624.133C479.059 622.419 476.838 622.09 474.943 621.73C467.929 620.397 436.013 620.38 428.822 621.623C427.273 621.89 426.178 622.4 424.904 623.331C421.747 625.635 420.458 628.774 419.834 632.518C406.668 625.346 394.194 619.217 380.038 614.102Q372.868 612.099 365.811 609.728C363.447 591.446 334.356 566.71 321.092 554.846C316.414 550.661 309.948 546.091 306.733 540.747Z"/>
	<path fill="#FEFEFE" d="M636.911 609.321C636.484 607.259 637.375 605.864 638.513 604.121C645.673 593.161 659.406 584.143 672.244 581.642C683.177 579.513 693.081 582.661 702.082 588.887C710.513 594.719 715.749 602.178 722.04 610.056C724.203 612.765 727.154 614.584 729.372 617.189C736.683 625.772 742.839 638.135 744.818 649.267C746.347 657.871 745.862 666.242 740.561 673.599C736.577 679.129 725.451 686.873 718.699 687.631C718.014 687.708 717.885 687.648 717.295 687.536L716.656 686.835L716.6 687.221C717.28 692.122 717.548 698.7 716.539 703.55C716.261 699.868 717.157 690.551 714.868 688.048C713.644 687.816 713.546 687.581 712.384 688.168L713.132 688.592C711.978 689.964 711.142 690.964 709.245 691.223C709.086 691.245 708.926 691.246 708.767 691.258C709.445 690.148 709.805 689.361 710.043 688.08L709.409 687.368C707.745 687.355 706.238 687.168 704.602 686.874C704.44 686.643 704.24 686.433 704.115 686.179C703.593 685.114 703.456 684.392 702.674 683.342C701.202 683.389 700.905 683.871 699.768 684.76L698.737 684.504C698.13 683.454 697.794 682.786 696.749 682.112C695.608 682.295 694.929 682.442 693.783 682.14C693.542 682.077 693.31 681.984 693.074 681.906C692.988 681.686 692.876 681.474 692.814 681.245C692.514 680.123 692.485 679.289 691.923 678.227C690.345 677.931 688.552 679.425 687.179 680.242C686.294 676.015 684.872 671.923 683.24 667.934L679.844 661.499C677.633 658.14 675.264 654.902 672.54 651.938C663.611 642.222 654.596 637.939 641.499 637.336C642.494 636.217 642.517 634.621 643.444 633.402C647.092 628.603 664.582 624.68 670.389 624.165C677.936 622.912 686.157 621.572 693.796 622.303C700.08 622.904 708.251 626.656 714.343 625.663C716.606 625.294 718.468 623.947 719.727 622.057C721.098 620 721.703 617.214 721.057 614.801C720.218 611.667 717.649 609.585 714.935 608.06C692.949 595.704 659.912 603.156 636.911 609.321Z"/>
	<defs>
		<linearGradient id="gradient_0" gradientUnits="userSpaceOnUse" x1="677.82153" y1="673.1701" x2="678.9361" y2="625.25439">
			<stop offset="0" stop-color="#606B80"/>
			<stop offset="1" stop-color="#8891A0"/>
		</linearGradient>
	</defs>
	<path fill="url(#gradient_0)" d="M641.499 637.336C642.494 636.217 642.517 634.621 643.444 633.402C647.092 628.603 664.582 624.68 670.389 624.165C670.621 624.323 670.85 624.486 671.086 624.64C674.698 627.001 679.86 627.355 683.737 629.5C699.087 637.992 710.087 654.717 714.027 671.609C714.106 671.948 714.163 672.291 714.225 672.632C715.629 677.169 716.326 682.103 716.656 686.835L716.6 687.221C717.28 692.122 717.548 698.7 716.539 703.55C716.261 699.868 717.157 690.551 714.868 688.048C713.644 687.816 713.546 687.581 712.384 688.168L713.132 688.592C711.978 689.964 711.142 690.964 709.245 691.223C709.086 691.245 708.926 691.246 708.767 691.258C709.445 690.148 709.805 689.361 710.043 688.08L709.409 687.368C707.745 687.355 706.238 687.168 704.602 686.874C704.44 686.643 704.24 686.433 704.115 686.179C703.593 685.114 703.456 684.392 702.674 683.342C701.202 683.389 700.905 683.871 699.768 684.76L698.737 684.504C698.13 683.454 697.794 682.786 696.749 682.112C695.608 682.295 694.929 682.442 693.783 682.14C693.542 682.077 693.31 681.984 693.074 681.906C692.988 681.686 692.876 681.474 692.814 681.245C692.514 680.123 692.485 679.289 691.923 678.227C690.345 677.931 688.552 679.425 687.179 680.242C686.294 676.015 684.872 671.923 683.24 667.934L679.844 661.499C677.633 658.14 675.264 654.902 672.54 651.938C663.611 642.222 654.596 637.939 641.499 637.336Z"/>
	<defs>
		<linearGradient id="gradient_1" gradientUnits="userSpaceOnUse" x1="698.52185" y1="683.43005" x2="702.40088" y2="662.33154">
			<stop offset="0" stop-color="#3F4953"/>
			<stop offset="1" stop-color="#5B6676"/>
		</linearGradient>
	</defs>
	<path fill="url(#gradient_1)" d="M686.604 658.427C687.852 659.292 688.46 659.476 688.786 661.052C689.149 662.804 688.713 664.474 689.579 666.111L690.437 666.272C693.137 667.399 695.899 668.859 698.82 669.232L699.481 670.082L700.328 670.894C701.271 669.916 701.191 668.696 702.521 668.343L703.568 669.079C703.77 670.427 703.538 671.243 703.191 672.531C703.476 673.149 703.422 673.501 704.147 673.704C706.677 674.411 710.134 673.23 713.046 673.733L713.567 673.819C713.766 673.361 713.676 673.644 713.749 672.946L714.225 672.632C715.629 677.169 716.326 682.103 716.656 686.835L716.6 687.221C717.28 692.122 717.548 698.7 716.539 703.55C716.261 699.868 717.157 690.551 714.868 688.048C713.644 687.816 713.546 687.581 712.384 688.168L713.132 688.592C711.978 689.964 711.142 690.964 709.245 691.223C709.086 691.245 708.926 691.246 708.767 691.258C709.445 690.148 709.805 689.361 710.043 688.08L709.409 687.368C707.745 687.355 706.238 687.168 704.602 686.874C704.44 686.643 704.24 686.433 704.115 686.179C703.593 685.114 703.456 684.392 702.674 683.342C701.202 683.389 700.905 683.871 699.768 684.76L698.737 684.504C698.13 683.454 697.794 682.786 696.749 682.112C695.608 682.295 694.929 682.442 693.783 682.14C693.542 682.077 693.31 681.984 693.074 681.906C692.988 681.686 692.876 681.474 692.814 681.245C692.514 680.123 692.485 679.289 691.923 678.227C690.345 677.931 688.552 679.425 687.179 680.242C686.294 676.015 684.872 671.923 683.24 667.934C684.897 665.735 686.501 663.729 686.281 660.803C686.203 659.767 686.245 659.382 686.604 658.427Z"/>
	<path fill="#343D49" d="M699.768 684.76C698.881 682.164 698.299 678.79 696.619 676.622C697.239 675.835 697.754 675.615 698.671 675.238C699.36 675.447 699.679 675.341 700.018 676.06C700.662 677.424 700.599 679.154 700.695 680.642C705.171 681.94 709.418 679.655 713.13 682.887L713.362 684.067C712.597 685.129 711.864 685.867 710.887 686.718C711.743 687.318 711.28 687.216 712.193 687.115C713.8 686.937 715.026 686.835 716.6 687.221C717.28 692.122 717.548 698.7 716.539 703.55C716.261 699.868 717.157 690.551 714.868 688.048C713.644 687.816 713.546 687.581 712.384 688.168L713.132 688.592C711.978 689.964 711.142 690.964 709.245 691.223C709.086 691.245 708.926 691.246 708.767 691.258C709.445 690.148 709.805 689.361 710.043 688.08L709.409 687.368C707.745 687.355 706.238 687.168 704.602 686.874C704.44 686.643 704.24 686.433 704.115 686.179C703.593 685.114 703.456 684.392 702.674 683.342C701.202 683.389 700.905 683.871 699.768 684.76Z"/>
	<path fill="#5F6B7E" d="M679.844 661.499C680.392 659.969 682.17 658.414 683.04 656.809C683.455 656.044 683.128 656.367 684.017 655.947C684.904 657.154 685.194 657.861 686.604 658.427C686.245 659.382 686.203 659.767 686.281 660.803C686.501 663.729 684.897 665.735 683.24 667.934L679.844 661.499Z"/>
	<path fill="#5F6B7E" d="M690.437 666.272C691.529 665.136 692.41 663.939 694.024 663.61C695.501 663.907 695.988 664.555 696.991 665.567C697.631 666.212 697.361 665.963 698.29 666.527L699.641 664.763L700.217 665.449L699.481 670.082L698.82 669.232C695.899 668.859 693.137 667.399 690.437 666.272Z"/>
	<path fill="#F5532E" d="M514.799 615.494L515.346 615.113C517.345 613.705 519.099 611.585 521.534 610.953C527.553 609.39 567.623 609.486 575.147 610.683C578.995 611.295 581.597 613.147 583.798 616.406C586.161 619.905 586.774 623.777 587.162 627.871Q578.459 632.816 570.017 638.193C561.872 643.421 553.866 649.309 547.38 656.558C545.332 659.108 543.188 661.606 541.528 664.433C538.589 668.98 535.852 673.459 533.834 678.497C528.538 679.571 523.24 679.538 518.437 676.873C516.214 674.597 514.268 672.294 513.282 669.211C510.994 662.051 511.433 631.621 512.479 623.482C512.847 620.613 513.45 618.087 514.799 615.494Z"/>
	<path fill="#F5A89D" d="M527.561 624.908C541.574 624.603 555.671 625.041 569.696 625.062C570.396 629.634 570.942 633.601 570.017 638.193C561.872 643.421 553.866 649.309 547.38 656.558C545.332 659.108 543.188 661.606 541.528 664.433C540.518 664.477 539.635 664.379 538.638 664.22C535.1 663.866 531.62 663.299 528.115 662.705C526.371 651.761 527.347 636.179 527.561 624.908Z"/>
	<path fill="#F97250" d="M545.423 653.969C545.95 655.152 546.396 655.718 547.38 656.558C545.332 659.108 543.188 661.606 541.528 664.433C540.518 664.477 539.635 664.379 538.638 664.22L539.289 663.963C540.436 662.406 542.228 659.175 542.033 657.287C543.656 656.605 544.415 655.334 545.423 653.969Z"/>
	<path fill="#F5532E" d="M542.033 657.287C541.164 657.061 539.9 656.855 539.138 656.401C538.06 655.761 537.969 655.326 537.799 654.221C538.46 653.564 538.582 653.324 539.517 653.024C541.536 652.376 543.627 653.021 545.423 653.969C544.415 655.334 543.656 656.605 542.033 657.287Z"/>
	<path fill="#F5532E" d="M540.781 629.52C541.69 629.493 542.611 629.462 543.519 629.53C545.364 629.666 547.1 630.729 548.214 632.185C549.071 633.304 549.404 634.553 549.156 635.946C548.745 638.263 547.349 639.155 545.514 640.373C544.25 640.459 542.846 640.633 541.593 640.424C540.227 640.196 539.044 639.285 538.242 638.191C537.276 636.871 536.987 635.589 537.302 633.962C537.71 631.859 539.058 630.602 540.781 629.52Z"/>
	<path fill="#FEFEFE" d="M387.509 596.808C398.737 600.049 411.013 604.211 420.961 610.396C417.188 612.955 411.114 616.269 410.104 621.058L410.385 621.222C410.539 620.924 410.687 620.623 410.848 620.328C413.155 616.089 417.096 613.263 421.738 612.135C427.567 610.719 468.953 610.791 475.945 611.555C479.061 611.895 482.953 612.612 485.642 614.265C489.641 616.724 491.687 621.276 492.572 625.712C494.179 633.762 493.884 657.801 492.372 666.092C491.916 668.596 491.03 671.103 489.569 673.203C487.105 676.746 481.54 678.083 477.462 678.676C472.779 679.357 467.993 679.24 463.283 678.948Q461.143 674.572 458.952 670.221C464.927 670.553 472.667 671.4 478.01 668.333C480.502 666.902 481.859 663.982 482.532 661.297C483.696 656.66 483.491 635.811 482.719 631.013C482.337 628.642 481.599 626.136 480.23 624.133C479.059 622.419 476.838 622.09 474.943 621.73C467.929 620.397 436.013 620.38 428.822 621.623C427.273 621.89 426.178 622.4 424.904 623.331C421.747 625.635 420.458 628.774 419.834 632.518C406.668 625.346 394.194 619.217 380.038 614.102C381.082 607.521 383.668 602.216 387.509 596.808Z"/>
	<path fill="#CAD2DC" d="M468.259 695.891C468.552 695.471 468.969 695.271 469.494 695.198C474.861 694.449 490.031 695.694 496.415 695.828C507.177 696.053 518.011 695.333 528.747 696.078C528.386 698.808 527.957 701.512 527.986 704.272C527.796 712.299 528.371 719.651 530.28 727.48C509.24 728.555 487.447 728.561 466.372 727.853C467.992 719.901 469.232 712.356 469.071 704.2C468.849 701.429 468.535 698.658 468.259 695.891Z"/>
	<path fill="#FEFEFE" d="M468.259 695.891C468.552 695.471 468.969 695.271 469.494 695.198C474.861 694.449 490.031 695.694 496.415 695.828C507.177 696.053 518.011 695.333 528.747 696.078C528.386 698.808 527.957 701.512 527.986 704.272C527.428 705.44 527.593 705.847 526.301 706.287C515.238 710.053 482.788 708.267 470.09 707.314C469.336 706.218 469.284 705.474 469.071 704.2C468.849 701.429 468.535 698.658 468.259 695.891Z"/>
	<path fill="#FEFEFE" d="M499.017 621.847C502.317 618.179 506.72 615.452 511.686 614.71C513.149 614.492 513.64 614.617 514.799 615.494C513.45 618.087 512.847 620.613 512.479 623.482C511.433 631.621 510.994 662.051 513.282 669.211C514.268 672.294 516.214 674.597 518.437 676.873C517.064 677.537 515.212 677.242 513.732 677.071C509.323 676.563 503.135 675.806 500.336 671.908C496.125 666.042 497.554 629.542 499.017 621.847Z"/>
	<path fill="#FEFEFE" d="M306.733 540.747C309.948 546.091 316.414 550.661 321.092 554.846C334.356 566.71 363.447 591.446 365.811 609.728C342.298 602.92 305.694 595.518 283.048 607.963C279.858 609.716 277.369 611.821 276.394 615.455C275.799 617.677 275.896 620.263 277.134 622.258C278.165 623.92 279.803 624.908 281.694 625.306C287.109 626.447 293.093 623.596 298.473 622.993Q301.847 622.648 305.237 622.551Q308.627 622.455 312.015 622.608Q315.403 622.761 318.77 623.162Q322.138 623.564 325.467 624.212C333.61 625.155 348.226 627.214 353.778 634.044C354.625 635.086 354.645 636.167 354.737 637.439C342.017 638.392 331.659 642.982 323.28 652.807C318.082 658.903 315.391 665.36 311.802 672.351C310.518 676.666 309.723 680.971 308.695 685.337C306.96 685.602 306.822 685.712 305.294 684.898C305.026 684.429 304.77 683.952 304.474 683.5C303.705 682.323 303.017 681.918 301.717 681.638C301.212 682.334 300.886 682.699 300.255 683.24L299.069 682.85C299.749 682.088 299.422 682.346 300.314 681.794C300.526 681.662 300.743 681.539 300.957 681.412L300.492 680.828C298.689 680.336 298.165 681.098 296.554 681.946L294.386 681.167C293.889 681.725 293.555 681.78 293.668 682.591C293.933 684.475 295.783 686.007 294.642 687.737C294.308 687.246 294.438 687.478 294.176 686.925C293.661 685.842 293.16 684.924 292.44 683.951C291.834 685.055 291.365 686.137 290.433 687.001L291.09 687.479L290.901 688.073C289.53 688.45 288.532 688.589 287.111 688.564L287.135 689.529C287.613 691.252 289.062 693.483 288.664 695.234L287.818 695.474C287.124 694.605 287.221 694.932 286.989 694.01C286.718 692.935 286.636 691.968 286.027 691.008C285.93 690.855 285.803 690.723 285.69 690.581C285.153 689.454 284.993 688.663 283.925 687.958C282.81 688.089 282.38 687.981 281.706 689.002C279.617 692.172 280.916 699.398 280.467 703.134C280.64 722.166 288.957 738.147 301.003 752.302C292.973 748.709 284.29 746.831 276.012 743.917C255.627 736.741 236.479 723.244 224.874 704.776C212.228 684.653 212.338 661.932 217.568 639.552Q218.461 635.9 219.591 632.315C232.398 591.438 269.878 559.918 306.733 540.747Z"/>
	<path fill="#CAD2DC" d="M301.003 752.302C292.973 748.709 284.29 746.831 276.012 743.917C255.627 736.741 236.479 723.244 224.874 704.776C212.228 684.653 212.338 661.932 217.568 639.552C218.84 643.427 219.775 647.431 221.421 651.169C226.793 663.368 237.632 672.602 249.358 678.489C254.446 681.044 274.394 689.078 279.537 687.17C279.991 687.001 279.977 686.932 280.269 686.586L280.442 687.234C279.911 692.196 279.34 698.236 280.467 703.134C280.64 722.166 288.957 738.147 301.003 752.302Z"/>
	<defs>
		<linearGradient id="gradient_2" gradientUnits="userSpaceOnUse" x1="314.026" y1="683.15631" x2="322.71161" y2="624.34967">
			<stop offset="0" stop-color="#54606D"/>
			<stop offset="1" stop-color="#8F97A7"/>
		</linearGradient>
	</defs>
	<path fill="url(#gradient_2)" d="M325.467 624.212C333.61 625.155 348.226 627.214 353.778 634.044C354.625 635.086 354.645 636.167 354.737 637.439C342.017 638.392 331.659 642.982 323.28 652.807C318.082 658.903 315.391 665.36 311.802 672.351C310.518 676.666 309.723 680.971 308.695 685.337C306.96 685.602 306.822 685.712 305.294 684.898C305.026 684.429 304.77 683.952 304.474 683.5C303.705 682.323 303.017 681.918 301.717 681.638C301.212 682.334 300.886 682.699 300.255 683.24L299.069 682.85C299.749 682.088 299.422 682.346 300.314 681.794C300.526 681.662 300.743 681.539 300.957 681.412L300.492 680.828C298.689 680.336 298.165 681.098 296.554 681.946L294.386 681.167C293.889 681.725 293.555 681.78 293.668 682.591C293.933 684.475 295.783 686.007 294.642 687.737C294.308 687.246 294.438 687.478 294.176 686.925C293.661 685.842 293.16 684.924 292.44 683.951C291.834 685.055 291.365 686.137 290.433 687.001L291.09 687.479L290.901 688.073C289.53 688.45 288.532 688.589 287.111 688.564L287.135 689.529C287.613 691.252 289.062 693.483 288.664 695.234L287.818 695.474C287.124 694.605 287.221 694.932 286.989 694.01C286.718 692.935 286.636 691.968 286.027 691.008C285.93 690.855 285.803 690.723 285.69 690.581C285.153 689.454 284.993 688.663 283.925 687.958C282.81 688.089 282.38 687.981 281.706 689.002C279.617 692.172 280.916 699.398 280.467 703.134C279.34 698.236 279.911 692.196 280.442 687.234L280.269 686.586L280.776 682.304C281.281 679.217 281.839 676.223 282.677 673.206Q283.256 670.519 284.059 667.89C288.375 653.708 297.976 637.663 311.541 630.569C316.063 628.205 321.231 627.273 325.641 624.939L325.467 624.212Z"/>
	<path fill="#475160" d="M294.693 674.339L293.886 673.371L295.071 672.379C295.632 670.211 296.07 668.83 298.015 667.526C299.143 667.439 299.269 667.229 300.253 667.881C299.175 668.331 298.633 668.48 297.795 669.309C299.47 670.124 301.273 669.475 303.051 669.331C304.654 669.201 305.497 670.07 306.624 671.034C306.896 671.267 307.582 671.884 307.89 672.102C308.882 672.804 309.529 672.811 310.683 672.664L311.213 671.522L311.802 672.351C310.518 676.666 309.723 680.971 308.695 685.337C306.96 685.602 306.822 685.712 305.294 684.898C305.026 684.429 304.77 683.952 304.474 683.5C303.705 682.323 303.017 681.918 301.717 681.638C301.212 682.334 300.886 682.699 300.255 683.24L299.069 682.85C299.749 682.088 299.422 682.346 300.314 681.794C300.526 681.662 300.743 681.539 300.957 681.412L300.492 680.828C298.689 680.336 298.165 681.098 296.554 681.946L294.386 681.167C293.889 681.725 293.555 681.78 293.668 682.591C293.933 684.475 295.783 686.007 294.642 687.737C294.308 687.246 294.438 687.478 294.176 686.925C293.661 685.842 293.16 684.924 292.44 683.951C291.834 685.055 291.365 686.137 290.433 687.001L291.09 687.479L290.901 688.073C289.53 688.45 288.532 688.589 287.111 688.564L287.135 689.529C287.613 691.252 289.062 693.483 288.664 695.234L287.818 695.474C287.124 694.605 287.221 694.932 286.989 694.01C286.718 692.935 286.636 691.968 286.027 691.008C285.93 690.855 285.803 690.723 285.69 690.581C285.153 689.454 284.993 688.663 283.925 687.958C282.81 688.089 282.38 687.981 281.706 689.002C279.617 692.172 280.916 699.398 280.467 703.134C279.34 698.236 279.911 692.196 280.442 687.234L280.269 686.586L280.776 682.304C281.281 679.217 281.839 676.223 282.677 673.206C283.035 674.002 283.161 673.964 282.969 674.864C282.676 676.231 282.249 677.382 282.831 678.722C283.931 678.645 284.818 678.493 285.625 677.652C285.938 677.326 286.135 676.91 286.346 676.519C287.92 675.618 288.839 675.423 290.62 675.27C292.043 675.148 292.884 674.95 294.155 674.29L294.693 674.339Z"/>
	<path fill="#343D49" d="M295.449 676.974C296.005 676.327 296.068 675.945 296.94 675.815C297.439 676.957 297.279 676.757 296.892 677.837C295.522 679.058 294.886 679.365 294.386 681.167C293.889 681.725 293.555 681.78 293.668 682.591C293.933 684.475 295.783 686.007 294.642 687.737C294.308 687.246 294.438 687.478 294.176 686.925C293.661 685.842 293.16 684.924 292.44 683.951C291.834 685.055 291.365 686.137 290.433 687.001L291.09 687.479L290.901 688.073C289.53 688.45 288.532 688.589 287.111 688.564L287.135 689.529C287.613 691.252 289.062 693.483 288.664 695.234L287.818 695.474C287.124 694.605 287.221 694.932 286.989 694.01C286.718 692.935 286.636 691.968 286.027 691.008C285.93 690.855 285.803 690.723 285.69 690.581C285.153 689.454 284.993 688.663 283.925 687.958C282.81 688.089 282.38 687.981 281.706 689.002C279.617 692.172 280.916 699.398 280.467 703.134C279.34 698.236 279.911 692.196 280.442 687.234L280.269 686.586L280.776 682.304L285.56 680.326L286.511 679.585C287.778 679.584 288.946 679.69 290.11 679.106C290.288 678.334 290.315 677.849 290.243 677.039C290.22 676.779 290.185 676.52 290.156 676.261C291.04 676.502 291.236 676.904 291.863 677.547C293.082 677.702 293.874 677.476 295.015 677.115L295.449 676.974Z"/>
	<path fill="#2C3340" d="M286.032 683.855L286.664 683.753C288.088 683.509 289.441 683.437 290.381 682.209C290.804 681.657 291.045 680.9 291.463 680.374C291.559 680.253 291.726 680.214 291.858 680.134C292.231 681.483 292.296 682.291 292.338 683.649C292.341 683.756 292.406 683.851 292.44 683.951C291.834 685.055 291.365 686.137 290.433 687.001L291.09 687.479L290.901 688.073C289.53 688.45 288.532 688.589 287.111 688.564L287.135 689.529C287.613 691.252 289.062 693.483 288.664 695.234L287.818 695.474C287.124 694.605 287.221 694.932 286.989 694.01C286.718 692.935 286.636 691.968 286.027 691.008C285.93 690.855 285.803 690.723 285.69 690.581C285.153 689.454 284.993 688.663 283.925 687.958C282.81 688.089 282.38 687.981 281.706 689.002C279.617 692.172 280.916 699.398 280.467 703.134C279.34 698.236 279.911 692.196 280.442 687.234C281.938 687.352 283.278 687.342 284.775 687.224C285.527 686.067 285.113 685.041 286.032 683.855Z"/>
	<path fill="#1A1F29" d="M287.111 688.564C287.047 687.539 287.067 686.756 287.302 685.755C288.524 685.566 289.38 686.397 290.433 687.001L291.09 687.479L290.901 688.073C289.53 688.45 288.532 688.589 287.111 688.564Z"/>
	<path fill="#CAD2DC" d="M354.737 637.439C374.944 638.309 401.117 651.562 416.951 663.938C429.248 673.605 440.078 685.552 442.01 701.702C443.384 713.19 440.369 724.813 433.066 733.855C426.484 742.003 416.713 747.777 406.228 748.843C402.065 749.267 397.045 749.098 393.156 747.463C384.816 743.956 380.475 735.257 370.476 735.071C367.357 735.013 364.911 735.96 362.847 738.34C361.019 740.446 359.787 743.002 358.091 745.206Q357.406 745.492 356.707 745.744Q356.009 745.996 355.299 746.214Q354.589 746.432 353.869 746.615Q353.149 746.798 352.421 746.946Q351.693 747.094 350.959 747.206Q350.225 747.318 349.486 747.394Q348.748 747.471 348.006 747.511Q347.265 747.551 346.522 747.555Q345.779 747.559 345.037 747.527Q344.295 747.495 343.556 747.427Q342.816 747.358 342.081 747.254Q341.346 747.15 340.616 747.01Q339.887 746.87 339.165 746.695Q338.444 746.52 337.731 746.31Q337.019 746.1 336.318 745.855Q335.616 745.61 334.928 745.332C324.286 740.922 315.959 730.035 311.808 719.599C309.35 713.418 308.658 707.398 307.785 700.875L308.102 699.021C307.68 694.493 308.278 689.848 308.695 685.337C309.723 680.971 310.518 676.666 311.802 672.351C315.391 665.36 318.082 658.903 323.28 652.807C331.659 642.982 342.017 638.392 354.737 637.439Z"/>
	<path fill="#FEFEFE" d="M354.737 637.439C374.944 638.309 401.117 651.562 416.951 663.938C417.006 673.851 414.349 682.705 407.213 689.828C400.547 696.482 391.564 699.579 382.237 699.505C371.001 699.416 363.578 693.057 355.278 693.01C343.615 692.945 336.395 705.542 318.886 702.81C315.119 702.222 311.33 701.087 308.102 699.021C307.68 694.493 308.278 689.848 308.695 685.337C309.723 680.971 310.518 676.666 311.802 672.351C315.391 665.36 318.082 658.903 323.28 652.807C331.659 642.982 342.017 638.392 354.737 637.439Z"/>
	<path fill="#CAD2DC" d="M641.499 637.336C654.596 637.939 663.611 642.222 672.54 651.938C675.264 654.902 677.633 658.14 679.844 661.499L683.24 667.934C684.872 671.923 686.294 676.015 687.179 680.242C688.787 687.272 689.117 694.149 689.029 701.342L689.226 703.54C688.833 705.963 688.444 708.398 687.922 710.796C685.229 723.174 678.387 735.36 667.505 742.301C659.019 747.712 649.441 748.141 639.829 746.081C638.091 743.551 636.452 740.774 634.527 738.395C625.683 727.462 612.148 743.509 603.997 747.035C599.769 748.865 594.639 749.286 590.082 748.797C579.537 747.666 570.384 742.119 563.869 733.841Q563.223 733.009 562.619 732.147Q562.015 731.284 561.454 730.393Q560.893 729.502 560.377 728.584Q559.86 727.666 559.39 726.724Q558.919 725.782 558.495 724.818Q558.072 723.854 557.696 722.87Q557.32 721.886 556.993 720.885Q556.666 719.884 556.389 718.869Q556.112 717.853 555.885 716.824Q555.658 715.796 555.482 714.758Q555.306 713.72 555.181 712.674Q555.056 711.628 554.983 710.578Q554.91 709.527 554.889 708.474Q554.867 707.422 554.898 706.369Q554.928 705.316 555.01 704.266Q555.092 703.217 555.226 702.172C557.282 685.866 566.953 674.187 579.574 664.426C596.488 650.705 619.905 639.882 641.499 637.336Z"/>
	<path fill="#FEFEFE" d="M641.499 637.336C654.596 637.939 663.611 642.222 672.54 651.938C675.264 654.902 677.633 658.14 679.844 661.499L683.24 667.934C684.872 671.923 686.294 676.015 687.179 680.242C688.787 687.272 689.117 694.149 689.029 701.342C674.697 704.739 666.049 705.008 653.217 697.041C649.77 694.901 646.097 692.942 641.93 692.807C635.782 692.608 625.673 699.057 615.884 699.52C606.108 699.983 597.134 697 589.954 690.278C582.099 682.926 579.899 674.918 579.574 664.426C596.488 650.705 619.905 639.882 641.499 637.336Z"/>
	<path fill="#CAD2DC" d="M257.624 260.581C258.776 260.461 260.131 260.329 261.278 260.566C264.044 261.138 265.51 263.895 266.876 266.073C267.475 280.94 267.767 425.052 266.357 428.764C265.897 429.973 264.779 430.97 263.595 431.441C261.272 432.364 259.502 431.838 257.3 430.892C253.928 428.77 251.064 425.42 249.277 421.877Q248.781 420.915 248.385 419.908Q247.989 418.901 247.696 417.86Q247.403 416.818 247.217 415.752Q247.03 414.686 246.952 413.607C246.289 405.034 246.519 396.271 246.525 387.668L246.797 342.087C246.841 331.597 245.426 276.561 247.98 269.494C249.695 264.746 253.201 262.462 257.624 260.581Z"/>
	<path fill="#CAD2DC" d="M734.982 260.526Q735.599 260.493 736.216 260.477C739.623 260.401 742.615 261.42 745.07 263.857C746.968 265.741 748.429 268.467 748.912 271.098C751.159 283.351 749.945 304.534 749.946 317.506C749.948 346.116 750.186 374.784 749.751 403.389C749.593 413.813 749.66 421.37 741.668 429.12C739.413 430.604 736.407 432.698 733.551 431.847C732.347 431.488 731.123 430.386 730.553 429.253C729.64 427.435 729.662 424.856 729.626 422.844C729.461 413.781 729.771 404.667 729.792 395.597L729.972 328.207C729.988 319.877 728.677 269.505 730.303 264.883C731.115 262.572 732.992 261.701 734.982 260.526Z"/>
	<path fill="#99A1B1" d="M768.567 273.07C771.464 273.529 773.909 274.405 776.253 276.227C779.647 278.865 781.676 282.637 782.23 286.87C783.141 293.819 782.655 300.951 782.681 307.944Q782.78 327.619 782.667 347.293L782.746 372.846C782.789 378.661 783.309 385.201 782.311 390.937C781.828 393.706 780.319 395.847 778.659 398.04C775.298 400.828 772.753 402.189 768.465 403.079C768.061 378.035 768.533 352.933 768.528 327.882C768.525 309.665 767.824 291.257 768.567 273.07Z"/>
	<path fill="#99A1B1" d="M227.077 274.064L227.618 274.369C229.518 279.188 228.564 390.332 227.965 402.782C224.616 401.962 222.055 400.993 219.233 398.964C217.351 396.976 215.676 394.892 214.974 392.193C213.2 385.374 214.145 356.552 214.131 347.456L214.097 311.572C214.098 303.98 213.824 296.205 214.527 288.644C214.778 285.95 215.287 283.629 216.701 281.279C219.139 277.229 222.614 275.181 227.077 274.064Z"/>
	<path fill="#99A1B1" d="M453.673 752.943Q498.039 753.993 542.404 752.94C544.81 754.863 547.044 756.958 549.299 759.052C544.195 759.095 538.232 758.136 533.25 759.032C531.603 759.328 529.551 760.015 528.725 761.595C527.806 763.351 528.679 765.99 529.045 767.793Q529.746 771.778 530.219 775.797C531.093 779.439 531.13 783.751 531.508 787.494C521.086 787.648 510.706 787.745 500.284 787.462L500.486 775.926L500.522 768.019C500.654 765.856 501.144 761.95 499.307 760.352C496.472 757.885 453.787 759.151 447.012 759.192C449.302 757.198 451.471 755.034 453.673 752.943Z"/>
	<path fill="#798392" d="M500.522 768.019C510.016 767.509 519.543 767.674 529.045 767.793Q529.746 771.778 530.219 775.797C531.093 779.439 531.13 783.751 531.508 787.494C521.086 787.648 510.706 787.745 500.284 787.462L500.486 775.926L500.522 768.019Z"/>
	<path fill="#FEFEFE" d="M500.522 768.019C510.016 767.509 519.543 767.674 529.045 767.793Q529.746 771.778 530.219 775.797C520.421 776.526 510.314 776.032 500.486 775.926L500.522 768.019Z"/>
	<path fill="#99A1B1" d="M722.53 805.064C735.325 804.72 748.158 804.876 760.96 804.829C772.173 804.787 783.422 804.505 794.631 804.865L796.352 810.554C798.112 814.382 799.164 818.676 800.412 822.702Q763.579 823.087 726.745 822.939Q725.666 817.181 724.356 811.472C723.865 809.325 723.14 807.184 722.53 805.064Z"/>
	<path fill="#FEFEFE" d="M722.53 805.064C735.325 804.72 748.158 804.876 760.96 804.829C772.173 804.787 783.422 804.505 794.631 804.865L796.352 810.554C792.736 811.821 786.59 811.065 782.664 811.051L743.691 810.884C737.805 810.878 729.992 810 724.356 811.472C723.865 809.325 723.14 807.184 722.53 805.064Z"/>
	<path fill="#CAD2DC" d="M791.09 521.925C798.437 525.736 805.254 530.632 811.59 535.95C808.052 539.323 804.553 543.16 800.713 546.163L797.836 548.829L796.141 550.18L793.143 553.2L788.307 557.934L787.166 558.749C784.47 561.093 781.701 563.383 779.265 566.002L775.754 569.563C774.249 566.841 772.238 564.48 770.301 562.06C771.012 560.132 771.852 558.356 772.809 556.539L773.239 554.393L774.642 551.545L775.61 549.238Q776.473 547.617 777.367 546.014L778.593 543.941C780.1 541.022 781.381 538.04 783.126 535.244C785.557 530.675 788.355 526.316 791.09 521.925Z"/>
	<path fill="#343D49" d="M777.367 546.014C778.569 546.523 779.458 546.896 780.446 547.776C784.631 551.068 787.581 553.348 793.143 553.2L788.307 557.934L787.166 558.749C784.47 561.093 781.701 563.383 779.265 566.002L775.754 569.563C774.249 566.841 772.238 564.48 770.301 562.06C771.012 560.132 771.852 558.356 772.809 556.539L773.239 554.393L774.642 551.545L775.61 549.238Q776.473 547.617 777.367 546.014Z"/>
	<path fill="#212832" d="M777.367 546.014C778.569 546.523 779.458 546.896 780.446 547.776C784.631 551.068 787.581 553.348 793.143 553.2L788.307 557.934L787.166 558.749C785.288 557.47 783.3 554.349 781.184 553.795C780.807 555.223 781.685 556.185 782.324 557.476L782.056 558.122L781.021 558.023C780.248 558.225 774.672 554.974 773.239 554.393L774.642 551.545L775.61 549.238Q776.473 547.617 777.367 546.014Z"/>
	<path fill="#2C3340" d="M774.642 551.545C775.6 553.514 776.856 553.919 778.82 554.655C779.978 555.757 780.673 556.385 781.021 558.023C780.248 558.225 774.672 554.974 773.239 554.393L774.642 551.545Z"/>
	<path fill="#2C3340" d="M777.367 546.014C778.569 546.523 779.458 546.896 780.446 547.776C779.028 549.185 777.574 549.075 775.61 549.238Q776.473 547.617 777.367 546.014Z"/>
	<path fill="#2C3340" d="M770.301 562.06C771.012 560.132 771.852 558.356 772.809 556.539C773.206 561.073 776.249 562.955 779.265 566.002L775.754 569.563C774.249 566.841 772.238 564.48 770.301 562.06Z"/>
	<path fill="#6E7787" d="M778.593 543.941C780.1 541.022 781.381 538.04 783.126 535.244L786.281 537.095L788.606 538.744C792.473 541.136 796.118 544.178 800.295 545.98L800.713 546.163L797.836 548.829L796.141 550.18L793.143 553.2C787.581 553.348 784.631 551.068 780.446 547.776C779.458 546.896 778.569 546.523 777.367 546.014L778.593 543.941Z"/>
	<path fill="#798392" d="M788.606 538.744C792.473 541.136 796.118 544.178 800.295 545.98L800.713 546.163L797.836 548.829C792.923 547.918 790.339 545.042 787.047 541.599C786.388 540.91 785.804 540.264 785.255 539.481C786.389 538.9 787.175 539.475 788.606 538.744Z"/>
	<path fill="#475160" d="M778.593 543.941C780.371 545.367 782.903 545.625 784.983 546.692C785.138 546.771 785.31 546.811 785.474 546.87C786.913 548.193 788.288 549.495 789.937 550.557C791.988 550.426 794.089 550.186 796.141 550.18L793.143 553.2C787.581 553.348 784.631 551.068 780.446 547.776C779.458 546.896 778.569 546.523 777.367 546.014L778.593 543.941Z"/>
	<path fill="#5F6B7E" d="M778.593 543.941C780.1 541.022 781.381 538.04 783.126 535.244L786.281 537.095C784.715 538.323 783.999 539.213 783.776 541.241C783.528 543.494 784.219 545.054 785.474 546.87C785.31 546.811 785.138 546.771 784.983 546.692C782.903 545.625 780.371 545.367 778.593 543.941Z"/>
	<path fill="#212832" d="M204.259 522.346C207.3 526.405 210.118 530.556 212.897 534.795L213.79 535.901C216.043 540.057 221.052 547.43 221.85 551.81L223.575 555.272C224.817 558.337 226.284 561.244 224.804 564.537C223.983 566.364 222.564 568.067 221.371 569.672C219.724 568.066 218.111 566.334 216.27 564.952Q211.199 560.297 206.251 555.51L204.581 553.877L202.41 551.359L196.809 546.838Q190.798 541.76 185.053 536.384C190.682 530.735 197.262 526.137 204.259 522.346Z"/>
	<path fill="#CAD2DC" d="M204.259 522.346C207.3 526.405 210.118 530.556 212.897 534.795C207.55 538.672 201.701 542.418 196.809 546.838Q190.798 541.76 185.053 536.384C190.682 530.735 197.262 526.137 204.259 522.346Z"/>
	<path fill="#99A1B1" d="M212.897 534.795L213.79 535.901C214.077 538.244 214.503 539.925 212.939 541.913C212.385 542.618 211.794 543.289 211.2 543.96C211.394 546.536 209.601 547.119 209.997 548.95L210.437 549.23C209.819 550.969 207.262 552.916 205.539 553.567C205.225 553.686 204.9 553.773 204.581 553.877L202.41 551.359L196.809 546.838C201.701 542.418 207.55 538.672 212.897 534.795Z"/>
	<path fill="#5F6B7E" d="M202.41 551.359C205.511 549.054 208.353 546.569 211.2 543.96C211.394 546.536 209.601 547.119 209.997 548.95L210.437 549.23C209.819 550.969 207.262 552.916 205.539 553.567C205.225 553.686 204.9 553.773 204.581 553.877L202.41 551.359Z"/>
	<defs>
		<linearGradient id="gradient_3" gradientUnits="userSpaceOnUse" x1="220.37851" y1="547.87543" x2="213.16089" y2="549.31458">
			<stop offset="0" stop-color="#414654"/>
			<stop offset="1" stop-color="#505C73"/>
		</linearGradient>
	</defs>
	<path fill="url(#gradient_3)" d="M213.79 535.901C216.043 540.057 221.052 547.43 221.85 551.81C221.884 552.965 221.94 554.04 222.125 555.184C219.873 554.285 217.591 553.577 215.273 552.877L214.997 552.724C213.378 551.244 213.107 549.018 212.036 548.369L210.437 549.23L209.997 548.95C209.601 547.119 211.394 546.536 211.2 543.96C211.794 543.289 212.385 542.618 212.939 541.913C214.503 539.925 214.077 538.244 213.79 535.901Z"/>
	<path fill="#343D49" d="M223.575 555.272C224.817 558.337 226.284 561.244 224.804 564.537C223.983 566.364 222.564 568.067 221.371 569.672C219.724 568.066 218.111 566.334 216.27 564.952L216.671 564.071C219.232 561.592 222.82 558.873 223.575 555.272Z"/>
	<path fill="#475160" d="M210.437 549.23L212.036 548.369C213.107 549.018 213.378 551.244 214.997 552.724C212.852 554.486 208.979 555.141 206.251 555.51L204.581 553.877C204.9 553.773 205.225 553.686 205.539 553.567C207.262 552.916 209.819 550.969 210.437 549.23Z"/>
	<path fill="#343D49" d="M215.273 552.877C217.591 553.577 219.873 554.285 222.125 555.184C221.232 556.019 220.362 556.896 219.393 557.642C218.384 557.067 217.249 556.498 216.345 555.771C215.276 554.911 215.284 554.146 215.273 552.877Z"/>
	<defs>
		<linearGradient id="gradient_4" gradientUnits="userSpaceOnUse" x1="761.23999" y1="773.73553" x2="817.89081" y2="765.67114">
			<stop offset="0" stop-color="#878A92"/>
			<stop offset="1" stop-color="#97A1B8"/>
		</linearGradient>
	</defs>
	<path fill="url(#gradient_4)" d="M765.311 753.068C773.508 753.146 797.55 751.684 804.01 754.11C813.015 757.491 818.799 777.321 822.518 785.821C816.619 785.844 810.623 786.321 804.747 786.179C802.755 778.936 801.158 766.832 795.833 761.464C794.393 760.012 792.639 759.196 790.638 758.838C786.827 758.156 782.064 758.93 778.157 759.023Q767.031 759.334 755.904 759.1C758.971 756.929 762.051 754.936 765.311 753.068Z"/>
	<path fill="#CAD2DC" d="M728.385 485.854C730.282 493.619 729.068 522.968 729.027 533.022C724.666 529.289 719.784 526.19 714.986 523.058C711.332 521.071 707.849 518.706 704.337 516.477C707.728 511.777 711.87 507.375 715.551 502.872C720.054 497.364 724.221 491.62 728.385 485.854Z"/>
	<path fill="#CAD2DC" d="M268.572 485.809C271.961 488.706 274.747 493.835 277.498 497.433C282.491 503.965 287.672 510.286 293.369 516.22C289.864 518.181 286.507 520.456 283.119 522.614C278.05 526.05 273.07 529.501 268.498 533.59C268.274 517.693 268.168 501.7 268.572 485.809Z"/>
	<path fill="#CAD2DC" d="M174.597 619.695C181.146 618.952 188.152 617.781 194.735 617.939L191.571 626.678C188.899 628.436 186.165 629.746 183.253 631.055L178.833 633.505Q169.626 637.925 160.499 642.506C157.253 636.584 155.574 630.722 154.131 624.151C160.886 622.168 167.653 620.781 174.597 619.695Z"/>
	<path fill="#212832" d="M174.597 619.695C181.146 618.952 188.152 617.781 194.735 617.939L191.571 626.678C188.899 628.436 186.165 629.746 183.253 631.055L178.833 633.505C179.235 629.44 177.722 626.592 176.215 622.917C175.771 621.797 175.169 620.754 174.597 619.695Z"/>
	<path fill="#5F6B7E" d="M176.215 622.917C179.699 621.911 182.691 622.114 186.257 622.351C185.242 625.201 183.99 628.129 183.253 631.055L178.833 633.505C179.235 629.44 177.722 626.592 176.215 622.917Z"/>
	<path fill="#6E7787" d="M678.954 769.687C688.343 769.001 697.935 769.127 707.353 768.947Q709.131 776.236 711.201 783.447C711.474 784.68 712.138 786.08 711.529 787.203C706.979 787.64 686.126 788.582 682.74 786.967L682.413 785.527C680.835 780.509 680.07 774.851 678.954 769.687Z"/>
	<path fill="#CAD2DC" d="M682.413 785.527L682.631 784.043C685.591 782.453 706.667 783.458 711.201 783.447C711.474 784.68 712.138 786.08 711.529 787.203C706.979 787.64 686.126 788.582 682.74 786.967L682.413 785.527Z"/>
	<defs>
		<linearGradient id="gradient_5" gradientUnits="userSpaceOnUse" x1="556.12433" y1="772.50555" x2="567.40778" y2="790.85999">
			<stop offset="0" stop-color="#6F7589"/>
			<stop offset="1" stop-color="#8591A0"/>
		</linearGradient>
	</defs>
	<path fill="url(#gradient_5)" d="M545.82 767.54C561.692 766.623 561.795 769.415 575.558 774.701C575.551 778.979 576.218 783.217 576.315 787.488C566.926 787.549 557.512 787.765 548.126 787.638C547.732 784.163 547.098 780.541 547.028 777.053L545.82 767.54Z"/>
	<path fill="#FEFEFE" d="M545.82 767.54C561.692 766.623 561.795 769.415 575.558 774.701C570.916 777.418 553.25 776.615 547.028 777.053L545.82 767.54Z"/>
	<path fill="#5F6B7E" d="M220.446 514.136C226.964 511.181 233.826 510.294 240.896 509.682Q241.323 515.98 241.487 522.29C241.886 532.682 242.747 544.723 240.117 554.831C234.701 545.059 230.34 534.908 225.805 524.714L220.446 514.136Z"/>
	<path fill="#CAD2DC" d="M220.446 514.136C226.964 511.181 233.826 510.294 240.896 509.682Q241.323 515.98 241.487 522.29Q233.669 523.651 225.805 524.714L220.446 514.136Z"/>
	<path fill="#FEFEFE" d="M372.727 804.881C381.632 804.536 390.645 804.862 399.555 804.996C399.085 811.01 398.387 816.97 397.627 822.953C388.545 823.191 379.421 823.005 370.334 822.997C370.731 816.96 371.748 810.849 372.727 804.881Z"/>
	<path fill="#FEFEFE" d="M329.667 804.63C338.494 804.558 347.35 804.817 356.179 804.919C355.451 811.028 354.774 817.178 352.965 823.08L326.263 822.85C327.2 816.776 328.026 810.558 329.667 804.63Z"/>
	<path fill="#FEFEFE" d="M416.156 804.898Q429.302 804.66 442.448 804.862C442.481 810.863 442.344 817.001 441.798 822.978L414.767 823.053C414.958 816.994 415.624 810.936 416.156 804.898Z"/>
	<path fill="#99A1B1" d="M724.522 769.048C732.503 768.147 740.617 767.867 748.645 767.757C750.021 772.819 751.044 780.213 753.763 784.64L754.276 786.68L753.844 787.023C750.619 787.382 732.06 788.24 729.904 787.394C728.784 786.955 728.539 785.545 728.094 784.503C726.811 779.396 725.495 774.223 724.522 769.048Z"/>
	<path fill="#CAD2DC" d="M728.094 784.503C736.461 784.435 745.47 783.712 753.763 784.64L754.276 786.68L753.844 787.023C750.619 787.382 732.06 788.24 729.904 787.394C728.784 786.955 728.539 785.545 728.094 784.503Z"/>
	<path fill="#FEFEFE" d="M670.601 804.732C673.087 804.655 675.585 804.704 678.072 804.701C679.302 810.688 680.892 816.588 682.073 822.599C676.022 822.959 669.936 822.875 663.875 822.906L655.906 822.914L652.386 804.942L670.601 804.732Z"/>
	<path fill="#FEFEFE" d="M461.771 804.754Q472.937 804.451 484.102 804.807C484.403 808.728 486.132 819.316 484.059 822.403C483.634 823.036 482.349 822.915 481.625 822.988Q470.044 823.002 458.465 822.81C458.569 818.55 457.651 808.551 459.877 805.136L461.771 804.754Z"/>
	<path fill="#FEFEFE" d="M537.418 804.737C542.467 804.602 547.531 804.835 552.579 804.974Q553.657 813.964 554.238 822.999L544.192 822.935L528.021 822.688C527.895 816.781 527.436 810.842 527.125 804.94L537.418 804.737Z"/>
	<path fill="#FEFEFE" d="M617.45 804.73C623.731 804.617 629.967 804.592 636.245 804.844C637.181 810.825 638.475 816.695 639.275 822.713L633.437 822.884L613.715 822.64C612.364 816.813 611.63 810.882 610.805 804.964L617.45 804.73Z"/>
	<path fill="#FEFEFE" d="M583.123 804.75C586.879 804.678 590.622 804.769 594.376 804.868C595.606 810.827 596.067 816.924 596.534 822.979L582.641 822.942L571.086 822.63C570.406 816.772 569.726 810.925 569.277 805.044L583.123 804.75Z"/>
	<path fill="#CAD2DC" d="M154.789 583.777C162.034 584.182 169.025 585.673 176.025 587.481C175.867 591.207 176.288 601.25 174.006 603.901C166.822 604.488 159.586 606.216 152.516 607.578C152.32 599.414 153.267 591.767 154.789 583.777Z"/>
	<path fill="#CAD2DC" d="M820.363 587.2C827.455 585.587 834.358 584.076 841.621 583.437C843.325 591.359 844.597 599.09 844.308 607.247C836.957 605.705 829.424 603.981 821.931 603.349C820.571 600.213 820.755 591.02 820.363 587.2Z"/>
	<path fill="#99A1B1" d="M440.57 767.634C442.537 767.472 444.578 767.535 446.555 767.491C446.529 774.113 446.122 780.841 445.499 787.432C439.3 787.554 433.077 787.411 426.875 787.369L420.903 787.211Q421.445 780.817 421.65 774.404C427.727 771.812 433.988 768.597 440.57 767.634Z"/>
	<path fill="#99A1B1" d="M470.635 767.737L483.986 767.699Q483.899 777.596 483.694 787.492L476.625 787.559L461.984 787.527Q462.319 777.751 462.832 767.982L470.635 767.737Z"/>
	<path fill="#6E7787" d="M633.559 771.754C643.273 774.023 653.181 774.987 662.891 772.213C663.882 775.583 664.497 780.749 666.143 783.685C666.102 784.947 666.289 786.203 665.352 787.083C656.343 787.784 646.485 787.74 637.471 787.091C636.57 785.945 636.444 784.8 636.112 783.409L633.559 771.754Z"/>
	<path fill="#CAD2DC" d="M636.112 783.409C639.889 781.615 661.199 782.949 666.143 783.685C666.102 784.947 666.289 786.203 665.352 787.083C656.343 787.784 646.485 787.74 637.471 787.091C636.57 785.945 636.444 784.8 636.112 783.409Z"/>
	<path fill="#99A1B1" d="M765.976 768.009C772.732 767.879 779.521 767.481 786.273 767.502C787.944 773.074 789.095 779.036 791.196 784.444C791.443 785.367 791.537 786.042 791.477 786.997C786.479 787.842 777.511 788.431 772.522 787.115C770.799 786.66 770.734 785.801 770.01 784.352C768.59 778.937 767.128 773.486 765.976 768.009Z"/>
	<path fill="#CAD2DC" d="M770.01 784.352C777.074 784.59 784.13 784.507 791.196 784.444C791.443 785.367 791.537 786.042 791.477 786.997C786.479 787.842 777.511 788.431 772.522 787.115C770.799 786.66 770.734 785.801 770.01 784.352Z"/>
	<path fill="#99A1B1" d="M317.261 772.705C318.411 772.533 319.275 772.572 320.423 772.748C320.988 776.474 318.346 783.647 317.379 787.483C309.561 787.773 301.699 787.53 293.875 787.443C292.896 787.456 292.096 787.377 291.142 787.158C289.665 784.069 292.388 776.937 292.768 773.295C301.072 773.789 308.993 773.376 317.261 772.705Z"/>
	<defs>
		<linearGradient id="gradient_6" gradientUnits="userSpaceOnUse" x1="345.2861" y1="771.23633" x2="352.82339" y2="789.21777">
			<stop offset="0" stop-color="#818797"/>
			<stop offset="1" stop-color="#959FAB"/>
		</linearGradient>
	</defs>
	<path fill="url(#gradient_6)" d="M363.429 771.657C364.233 773.198 361.75 784.842 361.267 787.462Q347.691 787.671 334.116 787.432C333.483 785.131 335.901 776.54 336.223 773.585C345.366 774.748 354.531 773.87 363.429 771.657Z"/>
	<path fill="#CAD2DC" d="M821.044 619.171C828.291 620.709 835.709 621.524 842.732 623.993C841.323 630.62 839.863 636.523 836.276 642.335C830.309 639.285 823.989 635.421 817.707 633.156Q818.844 627.901 820.26 622.714L821.044 619.171Z"/>
	<path fill="#CAD2DC" d="M172.128 548.819C177.414 552.018 182.633 555.698 187.549 559.441C185.68 564.104 183.558 568.652 181.463 573.216C174.562 571.616 167.95 568.854 160.986 567.565C163.559 560.82 167.878 554.606 172.128 548.819Z"/>
	<path fill="#798392" d="M591.197 776.519C601.395 776.334 607.966 773.915 616.979 769.446Q618.44 776.45 619.796 783.475C619.933 784.73 620.297 786.088 619.634 787.228C615.925 787.876 596.631 788.15 593.371 786.944C592.735 786.062 592.671 785.596 592.459 784.552C592.656 782.036 591.686 779.006 591.197 776.519Z"/>
	<path fill="#99A1B1" d="M592.459 784.552C594.761 782.553 615.953 783.45 619.796 783.475C619.933 784.73 620.297 786.088 619.634 787.228C615.925 787.876 596.631 788.15 593.371 786.944C592.735 786.062 592.671 785.596 592.459 784.552Z"/>
	<path fill="#CAD2DC" d="M809.556 559.09C813.885 555.28 818.968 551.976 823.852 548.921C828.35 554.774 832.638 560.534 835.48 567.413C829.166 569.081 822.792 570.63 816.591 572.687C813.875 568.304 811.421 563.908 809.556 559.09Z"/>
	<path fill="#99A1B1" d="M380.347 770.675C389.297 775.284 395.553 776.635 405.676 776.383C405.487 778.98 405.611 785.539 403.877 787.496Q390.664 787.753 377.453 787.437Q378.842 779.046 380.347 770.675Z"/>
	<path fill="#5F6B7E" d="M804.814 591.226C809.995 590.326 815.276 588.571 820.363 587.2C820.755 591.02 820.571 600.213 821.931 603.349Q813.826 602.867 805.715 602.501L802.844 602.668C800.792 602.691 798.718 602.536 796.666 602.453C795.526 601.234 794.274 599.811 793.413 598.385C792.681 597.173 792.831 596.532 793.233 595.254C794.871 593.695 797.304 593.315 799.434 592.714L804.814 591.226Z"/>
	<path fill="#2C3340" d="M796.666 602.453C795.526 601.234 794.274 599.811 793.413 598.385C792.681 597.173 792.831 596.532 793.233 595.254C794.871 593.695 797.304 593.315 799.434 592.714C799.513 594.451 800.295 595.238 801.556 596.391C802.141 596.925 802.748 597.437 803.352 597.949L804.398 598.326C804.874 599.711 805.387 601.073 805.715 602.501L802.844 602.668C800.792 602.691 798.718 602.536 796.666 602.453Z"/>
	<path fill="#343D49" d="M802.844 602.668C801.633 600.586 799.294 599.068 797.505 597.472L797.652 596.874C799.878 596.619 801.092 598.482 803.352 597.949L804.398 598.326C804.874 599.711 805.387 601.073 805.715 602.501L802.844 602.668Z"/>
	<path fill="#212832" d="M799.434 592.714L804.814 591.226C803.986 593.713 804.098 595.761 804.398 598.326L803.352 597.949C802.748 597.437 802.141 596.925 801.556 596.391C800.295 595.238 799.513 594.451 799.434 592.714Z"/>
	<defs>
		<linearGradient id="gradient_7" gradientUnits="userSpaceOnUse" x1="194.84085" y1="591.66187" x2="174.09349" y2="597.51086">
			<stop offset="0" stop-color="#454E5C"/>
			<stop offset="1" stop-color="#646F87"/>
		</linearGradient>
	</defs>
	<path fill="url(#gradient_7)" d="M176.025 587.481C182.948 589.487 190.099 591.211 196.909 593.547L197.231 593.559C199.688 594.139 201.821 594.389 203.38 596.499C203.637 598.64 202.467 600.098 201.606 601.973C199.653 603.019 196.409 602.89 194.206 602.954Q189.794 602.998 185.383 602.941C181.587 603.138 177.761 603.268 174.006 603.901C176.288 601.25 175.867 591.207 176.025 587.481Z"/>
	<path fill="#2C3340" d="M196.909 593.547L197.231 593.559C199.688 594.139 201.821 594.389 203.38 596.499C203.637 598.64 202.467 600.098 201.606 601.973C199.653 603.019 196.409 602.89 194.206 602.954C195.461 602.497 196.113 602.361 196.789 601.096C197.469 599.825 197.039 598.901 196.744 597.613C195.738 597.029 195.926 596.907 195.577 595.859L196.722 594.99L196.909 593.547Z"/>
	<path fill="#343D49" d="M196.909 593.547L197.231 593.559C198.163 596.671 200.163 599.127 201.606 601.973C199.653 603.019 196.409 602.89 194.206 602.954C195.461 602.497 196.113 602.361 196.789 601.096C197.469 599.825 197.039 598.901 196.744 597.613C195.738 597.029 195.926 596.907 195.577 595.859L196.722 594.99L196.909 593.547Z"/>
	<path fill="#212832" d="M188.025 598.843C190.523 597.739 192.97 596.684 195.577 595.859C195.926 596.907 195.738 597.029 196.744 597.613C197.039 598.901 197.469 599.825 196.789 601.096C196.113 602.361 195.461 602.497 194.206 602.954Q189.794 602.998 185.383 602.941C187.242 602.567 189.199 602.733 190.957 601.948C190.517 600.525 189.147 599.733 188.025 598.843Z"/>
	<path fill="#FEFEFE" d="M436.468 641.112C446.107 640.495 455.85 640.798 465.505 640.855Q465.631 646.631 465.64 652.409C459.169 652.77 452.701 652.571 446.229 652.374C442.382 649.407 438.432 645.608 436.468 641.112Z"/>
	<path fill="#5F6B7E" d="M755.337 522.917C758.875 523.065 762.503 523.502 766.03 523.489C767.372 524.167 768.414 524.805 769.576 525.756C766.35 533.11 761.476 548.1 756.745 553.863C754.301 550.915 755.341 527.816 755.337 522.917Z"/>
	<path fill="#6E7787" d="M187.343 646.447C187.532 646.713 187.791 646.942 187.911 647.245C188.137 647.821 186.378 665.58 186.293 668.154C182.026 667.173 178.365 665.792 174.558 663.632C172.208 661.982 170.254 660.333 168.363 658.159C174.35 653.572 180.744 650.048 187.343 646.447Z"/>
	<path fill="#6E7787" d="M808.925 646.03C815.655 648.536 822.328 653.618 828.285 657.667C826.515 659.683 824.5 661.413 822.499 663.193C818.842 665.745 815.329 667.17 811.106 668.481C811.038 660.867 810.125 653.527 808.925 646.03Z"/>
	<path fill="#798392" d="M755.036 509.903C758.249 509.956 761.314 510.205 764.495 510.659C768.155 511.725 771.802 512.716 775.267 514.33C773.238 518.094 771.307 521.845 769.576 525.756C768.414 524.805 767.372 524.167 766.03 523.489C762.503 523.502 758.875 523.065 755.337 522.917Q755.092 516.412 755.036 509.903Z"/>
	<path fill="#CAD2DC" d="M764.495 510.659C768.155 511.725 771.802 512.716 775.267 514.33C773.238 518.094 771.307 521.845 769.576 525.756C768.414 524.805 767.372 524.167 766.03 523.489C764.634 519.375 764.661 514.957 764.495 510.659Z"/>
	<path fill="#5F6B7E" d="M794.159 572.728Q797.575 568.859 801.439 565.436Q805.303 562.014 809.556 559.09C811.421 563.908 813.875 568.304 816.591 572.687C810.29 574.157 804.454 575.75 798.466 578.245C796.994 576.437 795.588 574.57 794.159 572.728Z"/>
	<path fill="#5F6B7E" d="M187.549 559.441C193.21 562.961 197.663 568.461 202.551 572.937C201.304 574.771 200.102 576.672 198.735 578.419C192.741 577.413 187.389 574.1 181.463 573.216C183.558 568.652 185.68 564.104 187.549 559.441Z"/>
	<path fill="#475160" d="M801.5 617.348C807.928 617.5 814.835 617.393 821.044 619.171L820.26 622.714Q818.844 627.901 817.707 633.156C813.614 631.474 809.442 629.828 805.7 627.447C803.541 625.408 802.536 620.206 801.5 617.348Z"/>
	<path fill="#212832" d="M801.5 617.348C807.928 617.5 814.835 617.393 821.044 619.171L820.26 622.714L819.103 620.668C814.598 620.812 815.499 622.811 810.768 620.413C809.781 620.474 809.351 620.408 808.635 621.212C807.431 622.565 806.761 625.682 805.7 627.447C803.541 625.408 802.536 620.206 801.5 617.348Z"/>
	<path fill="#1A1F29" d="M294.184 687.782C295.265 688.178 294.898 687.887 295.547 688.607C296.102 689.222 296.604 689.605 297.283 690.072C299.006 689.453 299.823 687.512 301.294 686.311C302.986 686.904 304.378 687.291 306.184 687.294C306.335 687.294 306.486 687.29 306.636 687.288L304.232 687.607L303.961 688.004L304.727 689.565C304.275 690.391 303.904 690.723 303.212 691.338C303.138 692.213 303.598 692.491 304.09 693.187C304.832 692.746 305.568 692.422 306.357 692.077L306.536 692.49C305.457 693.105 304.355 693.656 303.499 694.577C302.937 695.181 303.122 695.004 303.117 695.949L304.279 696.245L304.384 696.457C303.576 696.504 302.779 696.562 301.972 696.476C297.801 696.031 295.199 694.299 292.739 691.088L292.17 690.335Q291.408 691.237 290.672 692.161L289.238 692.283C289.637 692.815 289.87 693.828 290.121 694.44L290.34 693.422L290.531 693.953C290.853 693.352 291.309 692.891 291.752 692.376C292.756 692.382 293.125 692.623 293.935 693.196L294.073 694.23C293.436 695.256 293.381 695.714 292.258 696.24L290.259 695.282C289.354 695.921 288.512 696.439 287.507 696.905C285.061 695.973 286.436 694.092 285.556 692.158C284.665 692.318 283.797 692.417 282.894 692.486L282.549 691.778L285.69 690.581C285.803 690.723 285.93 690.855 286.027 691.008C286.636 691.968 286.718 692.935 286.989 694.01C287.221 694.932 287.124 694.605 287.818 695.474L288.664 695.234C289.062 693.483 287.613 691.252 287.135 689.529C288.402 690.23 289.15 690.966 290.626 690.805C291.435 689.764 292.137 688.906 293.309 688.252C293.598 688.091 293.892 687.939 294.184 687.782Z"/>
	<path fill="#2C3340" d="M303.961 688.004L304.727 689.565C304.275 690.391 303.904 690.723 303.212 691.338C303.138 692.213 303.598 692.491 304.09 693.187C303.753 693 303.005 692.578 302.696 692.444C301.036 691.725 300.713 691.608 299.666 690.16L299.912 689.223C301.208 688.246 302.408 688.189 303.961 688.004Z"/>
	<path fill="#212832" d="M294.386 681.167L296.554 681.946C298.165 681.098 298.689 680.336 300.492 680.828L300.957 681.412C300.743 681.539 300.526 681.662 300.314 681.794C299.422 682.346 299.749 682.088 299.069 682.85L300.255 683.24C300.886 682.699 301.212 682.334 301.717 681.638C303.017 681.918 303.705 682.323 304.474 683.5C304.77 683.952 305.026 684.429 305.294 684.898C306.822 685.712 306.96 685.602 308.695 685.337C308.278 689.848 307.68 694.493 308.102 699.021L307.785 700.875C305.764 697.384 307.544 691.46 307.571 687.431L306.636 687.288C306.486 687.29 306.335 687.294 306.184 687.294C304.378 687.291 302.986 686.904 301.294 686.311C299.823 687.512 299.006 689.453 297.283 690.072C296.604 689.605 296.102 689.222 295.547 688.607C294.898 687.887 295.265 688.178 294.184 687.782C293.892 687.939 293.598 688.091 293.309 688.252C292.137 688.906 291.435 689.764 290.626 690.805C289.15 690.966 288.402 690.23 287.135 689.529L287.111 688.564C288.532 688.589 289.53 688.45 290.901 688.073L291.09 687.479L290.433 687.001C291.365 686.137 291.834 685.055 292.44 683.951C293.16 684.924 293.661 685.842 294.176 686.925C294.438 687.478 294.308 687.246 294.642 687.737C295.783 686.007 293.933 684.475 293.668 682.591C293.555 681.78 293.889 681.725 294.386 681.167Z"/>
	<path fill="#343D49" d="M687.179 680.242C688.552 679.425 690.345 677.931 691.923 678.227C692.485 679.289 692.514 680.123 692.814 681.245C692.876 681.474 692.988 681.686 693.074 681.906L692.419 682.431C692.835 683.03 692.872 683.262 693.556 683.561C695.24 684.296 698.294 685.821 699.398 687.364C698.024 687.745 696.423 686.706 694.918 686.583L694.542 686.919C694.974 687.988 697.287 692.212 697.261 693.115C695.977 693.5 695.22 693.72 693.944 693.125C692.762 692.573 691.666 691.243 691.311 690.007C691.139 689.406 691.091 688.765 690.987 688.151C690.865 687.429 690.597 686.97 690.182 686.38C689.037 691.958 690.485 697.988 689.226 703.54L689.029 701.342C689.117 694.149 688.787 687.272 687.179 680.242Z"/>
	<path fill="#2C3340" d="M694.918 686.583C696.423 686.706 698.024 687.745 699.398 687.364C698.294 685.821 695.24 684.296 693.556 683.561C692.872 683.262 692.835 683.03 692.419 682.431L693.074 681.906C693.31 681.984 693.542 682.077 693.783 682.14C694.929 682.442 695.608 682.295 696.749 682.112C697.794 682.786 698.13 683.454 698.737 684.504L699.768 684.76C700.905 683.871 701.202 683.389 702.674 683.342C703.456 684.392 703.593 685.114 704.115 686.179C704.24 686.433 704.44 686.643 704.602 686.874C706.238 687.168 707.745 687.355 709.409 687.368L710.043 688.08C709.805 689.361 709.445 690.148 708.767 691.258C707.249 691.078 706.019 690.594 704.666 691.374C704.594 691.634 704.526 691.895 704.45 692.153C704.136 693.216 704.309 692.808 703.765 693.699C703.028 693.083 702.328 692.453 701.636 691.786L700.221 691.497L700.125 690.897L700.556 690.816C700.577 690.63 700.634 690.445 700.621 690.259C700.55 689.213 700.261 688.193 700.217 687.082C699.941 688.129 700.172 687.604 699.442 688.617C697.682 688.67 696.338 687.5 694.918 686.583Z"/>
	<path fill="#212832" d="M700.217 687.082L700.681 685.851C700.862 687.218 700.861 688.709 701.738 689.829C702.393 689.864 702.677 690.052 703.2 689.564C703.984 688.831 704.247 687.856 704.602 686.874C706.238 687.168 707.745 687.355 709.409 687.368L710.043 688.08C709.805 689.361 709.445 690.148 708.767 691.258C707.249 691.078 706.019 690.594 704.666 691.374C704.594 691.634 704.526 691.895 704.45 692.153C704.136 693.216 704.309 692.808 703.765 693.699C703.028 693.083 702.328 692.453 701.636 691.786L700.221 691.497L700.125 690.897L700.556 690.816C700.577 690.63 700.634 690.445 700.621 690.259C700.55 689.213 700.261 688.193 700.217 687.082Z"/>
	<path fill="#1A1F29" d="M713.132 688.592L714.187 688.974C713.563 690.526 710.278 691.56 710.251 692.794C711.906 693.568 713.56 693.837 714.322 695.55L714.213 695.952C713.154 696.223 712.594 695.952 711.63 695.416C709.187 694.058 709.167 691.053 705.945 691.325C705.039 692.357 705.249 692.644 705.142 693.964C705.304 693.715 705.462 693.465 705.626 693.218C706.127 692.464 706.58 692.049 707.352 691.56L708.122 692.006C708.307 692.72 708.478 694.188 708.839 694.768C709.65 696.072 712.448 696.766 712.114 700.202L711.21 700.923C709.011 699.647 708.322 696.786 705.965 695.371C705.354 696.088 705.511 695.678 705.453 696.514C705.366 697.774 705.423 698.789 704.594 699.815C703.503 700.119 702.568 700.201 701.553 699.519C701.127 699.233 701.021 699.042 700.737 698.669C702.02 698.443 702.871 698.678 704.121 698.931L704.508 698.043L704.075 697.287L702.966 698.036L702.128 697.542C702.732 696.612 702.359 697.021 703.256 696.324C703.012 696.299 702.766 696.29 702.525 696.248C700.475 695.89 699.258 694.841 698.157 693.118C697.72 692.434 697.471 691.759 697.258 690.982L697.766 690.477C698.499 691.249 698.954 692.026 699.469 692.953L700.325 693.364L700.795 692.73C701.37 691.968 701.104 692.231 701.636 691.786C702.328 692.453 703.028 693.083 703.765 693.699C704.309 692.808 704.136 693.216 704.45 692.153C704.526 691.895 704.594 691.634 704.666 691.374C706.019 690.594 707.249 691.078 708.767 691.258C708.926 691.246 709.086 691.245 709.245 691.223C711.142 690.964 711.978 689.964 713.132 688.592Z"/>
</svg>
